<svg width="166" height="47" viewBox="0 0 166 47" fill="none" xmlns="http://www.w3.org/2000/svg">
<g clip-path="url(#clip0_6_3)">
<path d="M50.2964 27.5234V19.2674C50.2964 17.6904 50.6624 16.4474 51.3944 15.5374C52.1274 14.6274 53.0444 14.1724 54.1444 14.1724C56.3024 14.1724 57.3814 15.7494 57.3814 18.9034V27.5234H61.1634V17.9434C61.1634 15.5284 60.6634 13.7234 59.6604 12.5264C58.6584 11.3294 57.2274 10.7314 55.3664 10.7314C54.1444 10.7314 53.0264 10.9654 52.0144 11.4344C51.0081 11.8978 50.1295 12.5989 49.4544 13.4774H49.3884C48.4084 11.6464 46.7684 10.7314 44.4664 10.7314C43.4974 10.7314 42.5644 10.9484 41.6674 11.3844C40.7557 11.8317 39.9527 12.4726 39.3144 13.2624H39.2644V10.9794H35.4824V27.5064H39.2644V19.2674C39.2644 17.6904 39.6364 16.4474 40.3794 15.5374C41.1224 14.6274 42.0724 14.1724 43.2284 14.1724C45.4184 14.1724 46.5144 15.7494 46.5144 18.9034V27.5234H50.2964V27.5234ZM71.3974 27.7714C73.6434 27.7714 75.3944 26.9444 76.6494 25.2894H76.6994V27.5064H80.3154V10.9794H76.5334V12.9644H76.4674C75.2124 11.4754 73.5124 10.7314 71.3644 10.7314C70.3026 10.7238 69.2506 10.9343 68.2734 11.3497C67.2963 11.7651 66.4148 12.3766 65.6834 13.1464C64.9784 13.8964 64.4234 14.8064 64.0154 15.8764C63.6028 16.976 63.3957 18.142 63.4044 19.3164C63.4044 20.5744 63.6074 21.7324 64.0144 22.7914C64.4224 23.8504 64.9784 24.7434 65.6834 25.4714C66.4005 26.2078 67.2641 26.7856 68.2184 27.1674C69.2287 27.5748 70.3091 27.78 71.3984 27.7714H71.3974ZM71.9924 24.3304C70.5934 24.3304 69.4544 23.8644 68.5734 22.9324C67.6934 22.0004 67.2524 20.8004 67.2524 19.3334C67.2524 17.7784 67.7064 16.5294 68.6144 15.5864C69.5234 14.6434 70.6544 14.1724 72.0084 14.1724C73.3514 14.1724 74.4664 14.6654 75.3534 15.6524C76.2394 16.6404 76.6834 17.8674 76.6834 19.3334C76.6834 20.8004 76.2284 22.0004 75.3204 22.9324C74.4114 23.8644 73.3024 24.3304 71.9924 24.3304V24.3304ZM99.1044 27.5234V17.7784C99.1044 15.3854 98.5684 13.6124 97.4944 12.4594C96.4224 11.3074 94.9374 10.7314 93.0444 10.7314C91.9914 10.7257 90.9493 10.9456 89.9884 11.3764C89.0325 11.8053 88.1858 12.4445 87.5114 13.2464H87.4614V10.9784H83.6794V27.5054H87.4614V19.2014C87.4614 17.6134 87.8494 16.3784 88.6254 15.4954C89.4024 14.6134 90.4394 14.1724 91.7384 14.1724C92.3334 14.1724 92.8424 14.2494 93.2664 14.4034C93.6904 14.5584 94.0624 14.8094 94.3814 15.1564C94.7014 15.5044 94.9374 15.9754 95.0914 16.5714C95.2454 17.1664 95.3224 17.8944 95.3224 18.7544V27.5234H99.1044V27.5234ZM109.322 27.7714C111.568 27.7714 113.318 26.9444 114.574 25.2894H114.624V27.5064H118.24V10.9794H114.458V12.9644H114.392C113.137 11.4754 111.436 10.7314 109.289 10.7314C108.227 10.7237 107.175 10.9341 106.198 11.3495C105.221 11.7649 104.339 12.3765 103.607 13.1464C102.903 13.8964 102.347 14.8064 101.939 15.8764C101.527 16.976 101.32 18.142 101.329 19.3164C101.329 20.5744 101.532 21.7324 101.939 22.7914C102.347 23.8504 102.903 24.7434 103.607 25.4714C104.325 26.2079 105.189 26.7857 106.143 27.1674C107.153 27.5747 108.233 27.7799 109.322 27.7714V27.7714ZM109.916 24.3304C108.518 24.3304 107.378 23.8644 106.498 22.9324C105.617 22.0004 105.176 20.8004 105.176 19.3334C105.176 17.7784 105.631 16.5294 106.539 15.5864C107.447 14.6434 108.579 14.1724 109.933 14.1724C111.276 14.1724 112.391 14.6654 113.277 15.6524C114.163 16.6404 114.607 17.8674 114.607 19.3334C114.607 20.8004 114.152 22.0004 113.244 22.9324C112.336 23.8644 111.226 24.3304 109.916 24.3304V24.3304ZM128.986 34.4554C130.186 34.4554 131.26 34.3154 132.206 34.0334C133.153 33.7524 133.949 33.3604 134.593 32.8584C135.241 32.3525 135.785 31.7264 136.195 31.0144C136.624 30.2732 136.933 29.469 137.111 28.6314C137.299 27.7714 137.392 26.8284 137.392 25.8024V10.9794H133.61V12.7164H133.544C132.867 12.0684 132.067 11.5619 131.191 11.2264C130.309 10.8854 129.371 10.7118 128.424 10.7144C126.916 10.7144 125.562 11.0724 124.362 11.7894C123.162 12.5064 122.228 13.5024 121.562 14.7764C120.896 16.0494 120.563 17.4814 120.563 19.0694C120.563 20.6794 120.913 22.1074 121.612 23.3544C122.311 24.6004 123.272 25.5574 124.494 26.2244C125.716 26.8914 127.092 27.2254 128.623 27.2254C130.67 27.2254 132.339 26.5524 133.627 25.2074H133.693V26.9604C133.693 28.1304 133.263 29.1004 132.405 29.8724C131.545 30.6444 130.335 31.0304 128.771 31.0304C127.703 31.0304 126.765 30.8984 125.955 30.6334C125.146 30.3684 124.213 29.9554 123.156 29.3934L122.264 32.7344C123.189 33.2864 124.23 33.7104 125.386 34.0084C126.542 34.3064 127.742 34.4554 128.986 34.4554V34.4554ZM129.118 23.7354C127.753 23.7354 126.627 23.3014 125.741 22.4354C124.854 21.5704 124.411 20.4094 124.411 18.9534C124.411 17.5534 124.846 16.4114 125.716 15.5284C126.586 14.6464 127.72 14.2054 129.118 14.2054C130.45 14.2054 131.56 14.6404 132.446 15.5124C133.332 16.3834 133.776 17.5144 133.776 18.9034C133.776 20.3044 133.343 21.4594 132.479 22.3694C131.615 23.2794 130.494 23.7344 129.118 23.7344V23.7354ZM148.204 27.7714C149.746 27.7714 151.103 27.4904 152.275 26.9274C153.448 26.3654 154.408 25.6044 155.157 24.6444L152.515 22.3784C151.48 23.6794 150.109 24.3304 148.402 24.3304C147.192 24.3304 146.165 23.9934 145.322 23.3204C144.48 22.6484 143.938 21.7274 143.695 20.5584H155.719C155.785 20.1614 155.818 19.6584 155.818 19.0524C155.818 17.4534 155.493 16.0254 154.843 14.7674C154.213 13.5303 153.238 12.502 152.036 11.8064C150.814 11.0894 149.404 10.7314 147.808 10.7314C146.715 10.7232 145.631 10.934 144.62 11.3514C143.63 11.7654 142.776 12.3414 142.06 13.0804C141.345 13.8194 140.783 14.7184 140.376 15.7764C139.969 16.8364 139.765 17.9884 139.765 19.2344C139.765 20.9224 140.134 22.4194 140.871 23.7264C141.609 25.0334 142.617 26.0344 143.894 26.7294C145.171 27.4244 146.608 27.7714 148.204 27.7714ZM152.019 17.4974H143.762C144.026 16.4384 144.538 15.6194 145.297 15.0404C146.057 14.4614 146.96 14.1724 148.006 14.1724C149.063 14.1724 149.936 14.4704 150.624 15.0654C151.312 15.6614 151.777 16.4714 152.019 17.4974Z" fill="white"/>
<path fill-rule="evenodd" clip-rule="evenodd" d="M13.0685 21.0004C14.6065 21.0004 15.8535 22.2794 15.8535 23.8574C15.8535 25.4344 14.6065 26.7144 13.0685 26.7144C11.5295 26.7144 10.2825 25.4344 10.2825 23.8574C10.2825 22.2794 11.5295 21.0004 13.0685 21.0004V21.0004ZM13.0685 10.7144C14.6065 10.7144 15.8525 11.9944 15.8525 13.5714C15.8525 15.1494 14.6055 16.4284 13.0675 16.4284C11.5295 16.4284 10.2825 15.1494 10.2825 13.5714C10.2825 11.9944 11.5295 10.7144 13.0685 10.7144ZM23.0965 10.7144C24.6355 10.7144 25.8825 11.9944 25.8825 13.5714C25.8825 15.1494 24.6355 16.4284 23.0965 16.4284C21.5585 16.4284 20.3115 15.1494 20.3115 13.5714C20.3115 11.9944 21.5585 10.7144 23.0965 10.7144Z" fill="#3CDDF3"/>
<path opacity="0.5" d="M23.0964 26.8283C24.6351 26.8283 25.8824 25.5491 25.8824 23.9713C25.8824 22.3934 24.6351 21.1143 23.0964 21.1143C21.5578 21.1143 20.3104 22.3934 20.3104 23.9713C20.3104 25.5491 21.5578 26.8283 23.0964 26.8283Z" fill="#3CDDF3"/>
</g>
<defs>
<clipPath id="clip0_6_3">
<rect width="145.435" height="26.1787" fill="white" transform="translate(10.2825 10.7144)"/>
</clipPath>
</defs>
</svg>
