<svg width="227" height="169" viewBox="0 0 227 169" fill="none" xmlns="http://www.w3.org/2000/svg">
<g filter="url(#filter0_d_1_190)">
<path d="M203.507 10.6876H23.73C22.1539 10.6876 20.8763 11.6601 20.8763 12.8598V136.137C20.8763 137.337 22.1539 138.309 23.73 138.309H203.507C205.083 138.309 206.361 137.337 206.361 136.137V12.8598C206.361 11.6601 205.083 10.6876 203.507 10.6876Z" fill="black"/>
</g>
<path d="M203.507 10.6876H23.73C22.1539 10.6876 20.8763 11.6601 20.8763 12.8598V136.137C20.8763 137.337 22.1539 138.309 23.73 138.309H203.507C205.083 138.309 206.361 137.337 206.361 136.137V12.8598C206.361 11.6601 205.083 10.6876 203.507 10.6876Z" fill="white"/>
<path d="M105.225 86.9674H35.2928C33.7168 86.9674 32.4392 87.94 32.4392 89.1397V127.336C32.4392 128.535 33.7168 129.508 35.2928 129.508H105.225C106.801 129.508 108.078 128.535 108.078 127.336V89.1397C108.078 87.94 106.801 86.9674 105.225 86.9674Z" fill="#3CDDF3"/>
<path d="M48.879 119.233V117.111H51.6591V116.144H48.879V114.022H47.6084V116.144H44.8204V117.111H47.6084V119.233H48.8783H48.879ZM57.6281 120.34V112.679H56.0886L53.6395 114.307V115.596L56.0037 113.979V120.339H57.6274L57.6281 120.34ZM62.2203 120.447C62.4928 120.447 62.7268 120.374 62.9223 120.227C63.1178 120.08 63.2148 119.903 63.2148 119.695C63.2148 119.487 63.1178 119.309 62.9223 119.161C62.8314 119.089 62.7223 119.032 62.6016 118.994C62.4808 118.956 62.3511 118.937 62.2203 118.938C61.9521 118.938 61.7195 119.012 61.5212 119.161C61.4262 119.229 61.3508 119.312 61.2999 119.404C61.249 119.496 61.2235 119.595 61.2251 119.695C61.2251 119.899 61.3243 120.075 61.5219 120.224C61.7195 120.373 61.9521 120.447 62.2203 120.447V120.447ZM68.3442 120.442C69.3786 120.442 70.2154 120.201 70.8532 119.719C71.4903 119.237 71.8091 118.605 71.8091 117.82C71.8091 117.039 71.4967 116.439 70.8703 116.017C70.2447 115.597 69.3015 115.387 68.041 115.387H66.9395L67.1585 113.802H71.3504V112.685H65.7409L65.2187 116.439H67.8084C69.385 116.439 70.1726 116.914 70.1726 117.863C70.1726 118.293 70.0071 118.64 69.6754 118.903C69.3436 119.166 68.8885 119.298 68.3092 119.298C67.8062 119.298 67.3768 119.186 67.0215 118.965C66.6662 118.742 66.4886 118.409 66.4886 117.965C66.4886 117.876 66.505 117.747 66.5385 117.579L64.9077 117.654C64.8842 117.808 64.872 117.937 64.872 118.04C64.872 118.538 65.0347 118.972 65.3593 119.343C65.6693 119.704 66.1074 119.991 66.6227 120.17C67.1406 120.351 67.7142 120.442 68.3449 120.442H68.3442ZM74.9124 115.94C75.2031 115.943 75.4916 115.902 75.7599 115.816C76.0283 115.731 76.2707 115.605 76.4719 115.446C76.9 115.113 77.114 114.713 77.114 114.248C77.114 113.786 76.9 113.39 76.4719 113.06C76.2707 112.901 76.0283 112.774 75.7599 112.689C75.4916 112.604 75.2031 112.562 74.9124 112.566C74.3061 112.566 73.7853 112.731 73.3529 113.06C73.1439 113.214 72.9784 113.399 72.8667 113.603C72.7551 113.807 72.6996 114.027 72.7038 114.248C72.7038 114.717 72.9192 115.116 73.3494 115.446C73.7796 115.775 74.3011 115.94 74.9124 115.94V115.94ZM75.6886 120.345L81.0106 112.668H79.5981L74.2918 120.345H75.6886V120.345ZM74.9124 115.086C74.6114 115.086 74.3524 115.005 74.1363 114.842C74.0314 114.765 73.9485 114.673 73.8926 114.571C73.8367 114.468 73.8092 114.359 73.8117 114.248C73.8117 114.015 73.9201 113.819 74.1363 113.659C74.2381 113.582 74.3593 113.521 74.4926 113.48C74.6259 113.439 74.7687 113.419 74.9124 113.42C75.2185 113.42 75.4775 113.501 75.6886 113.662C75.9005 113.823 76.0061 114.018 76.0061 114.248C76.0061 114.48 75.9019 114.679 75.6922 114.842C75.4832 115.005 75.2228 115.086 74.9124 115.086V115.086ZM80.4663 120.431C81.0734 120.431 81.5899 120.266 82.0158 119.937C82.222 119.782 82.3849 119.597 82.4946 119.393C82.6044 119.189 82.6587 118.97 82.6543 118.75C82.6543 118.284 82.4403 117.887 82.0122 117.56C81.8126 117.401 81.5723 117.276 81.3064 117.192C81.0404 117.107 80.7545 117.065 80.4663 117.068C79.8549 117.068 79.3327 117.232 78.8997 117.56C78.69 117.714 78.5242 117.899 78.4126 118.103C78.3009 118.308 78.2457 118.528 78.2505 118.75C78.2505 119.215 78.4659 119.612 78.8961 119.939C79.327 120.267 79.8506 120.431 80.4663 120.431V120.431ZM80.4663 119.582C80.156 119.582 79.8956 119.501 79.683 119.338C79.5805 119.261 79.4994 119.17 79.4449 119.068C79.3903 118.967 79.3633 118.859 79.3655 118.75C79.3655 118.513 79.4718 118.315 79.683 118.153C79.7849 118.074 79.907 118.012 80.0418 117.971C80.1765 117.929 80.321 117.909 80.4663 117.912C80.7631 117.912 81.0206 117.994 81.2396 118.159C81.4579 118.323 81.5678 118.52 81.5678 118.75C81.5678 118.979 81.4593 119.175 81.2432 119.338C81.0263 119.501 80.768 119.582 80.4663 119.582Z" fill="white"/>
<path d="M191.944 86.9674H122.013C120.437 86.9674 119.159 87.94 119.159 89.1397V127.336C119.159 128.535 120.437 129.508 122.013 129.508H191.944C193.521 129.508 194.798 128.535 194.798 127.336V89.1397C194.798 87.94 193.521 86.9674 191.944 86.9674Z" fill="#FAFAFA"/>
<path d="M134.928 120.442C135.596 120.442 136.196 120.351 136.727 120.168C137.242 119.992 137.682 119.709 137.994 119.351C138.307 118.993 138.464 118.58 138.464 118.11C138.464 117.649 138.308 117.245 137.998 116.902C137.682 116.555 137.245 116.283 136.735 116.117C137.111 115.949 137.407 115.73 137.624 115.459C137.841 115.186 137.954 114.873 137.948 114.554C137.948 113.974 137.663 113.499 137.091 113.128C136.519 112.757 135.798 112.572 134.928 112.572C134.043 112.572 133.314 112.756 132.74 113.126C132.166 113.494 131.879 113.97 131.879 114.554C131.879 114.887 131.989 115.189 132.211 115.459C132.432 115.73 132.736 115.949 133.121 116.117C132.58 116.293 132.156 116.552 131.847 116.896C131.539 117.24 131.385 117.645 131.385 118.11C131.385 118.58 131.542 118.993 131.855 119.351C132.167 119.709 132.608 119.991 133.124 120.165C133.659 120.349 134.259 120.442 134.928 120.442V120.442ZM134.928 115.736C134.495 115.736 134.13 115.629 133.834 115.416C133.69 115.316 133.576 115.193 133.499 115.057C133.423 114.92 133.385 114.772 133.389 114.624C133.389 114.316 133.537 114.057 133.834 113.847C134.13 113.638 134.495 113.533 134.928 113.533C135.356 113.533 135.718 113.638 136.014 113.848C136.311 114.057 136.46 114.316 136.46 114.624C136.46 114.936 136.31 115.198 136.011 115.413C135.72 115.626 135.331 115.742 134.928 115.736V115.736ZM134.928 119.324C134.377 119.324 133.921 119.201 133.558 118.954C133.196 118.707 133.015 118.377 133.015 117.965C133.015 117.561 133.196 117.237 133.559 116.993C133.921 116.749 134.377 116.628 134.928 116.628C135.469 116.628 135.92 116.749 136.283 116.993C136.645 117.237 136.826 117.561 136.826 117.965C136.826 118.374 136.645 118.702 136.283 118.951C135.92 119.2 135.469 119.324 134.927 119.324H134.928ZM142.83 120.442C143.497 120.442 144.097 120.351 144.629 120.168C145.144 119.993 145.583 119.71 145.896 119.352C146.209 118.993 146.365 118.58 146.365 118.111C146.365 117.649 146.21 117.246 145.899 116.902C145.584 116.555 145.146 116.283 144.637 116.118C145.013 115.95 145.309 115.73 145.525 115.46C145.743 115.187 145.855 114.873 145.85 114.554C145.85 113.974 145.565 113.499 144.993 113.128C144.421 112.758 143.7 112.572 142.83 112.572C141.945 112.572 141.216 112.757 140.642 113.126C140.068 113.494 139.78 113.971 139.78 114.554C139.78 114.888 139.891 115.19 140.112 115.46C140.333 115.73 140.637 115.95 141.022 116.118C140.482 116.293 140.057 116.553 139.749 116.897C139.441 117.24 139.287 117.646 139.287 118.111C139.287 118.58 139.444 118.993 139.756 119.352C140.069 119.71 140.509 119.992 141.026 120.165C141.56 120.35 142.161 120.442 142.83 120.442V120.442ZM142.83 115.737C142.396 115.737 142.032 115.63 141.735 115.417C141.591 115.316 141.477 115.194 141.401 115.057C141.324 114.92 141.287 114.773 141.291 114.624C141.291 114.316 141.439 114.057 141.735 113.848C142.032 113.639 142.396 113.534 142.83 113.534C143.258 113.534 143.62 113.639 143.916 113.848C144.213 114.057 144.36 114.316 144.36 114.624C144.36 114.936 144.211 115.199 143.912 115.414C143.622 115.627 143.232 115.743 142.83 115.737V115.737ZM142.83 119.325C142.279 119.325 141.822 119.201 141.46 118.954C141.098 118.707 140.917 118.378 140.917 117.966C140.917 117.561 141.098 117.237 141.461 116.994C141.822 116.749 142.279 116.628 142.83 116.628C143.37 116.628 143.822 116.75 144.185 116.993C144.547 117.237 144.727 117.561 144.727 117.965C144.727 118.374 144.547 118.703 144.185 118.952C143.822 119.2 143.37 119.325 142.83 119.325V119.325ZM148.847 120.448C149.12 120.448 149.354 120.374 149.55 120.227C149.745 120.081 149.842 119.903 149.842 119.695C149.842 119.488 149.745 119.309 149.55 119.161C149.459 119.09 149.35 119.033 149.229 118.994C149.108 118.956 148.978 118.937 148.847 118.939C148.58 118.939 148.346 119.012 148.149 119.161C148.054 119.23 147.978 119.313 147.927 119.405C147.876 119.497 147.851 119.596 147.853 119.696C147.853 119.9 147.951 120.076 148.149 120.225C148.346 120.373 148.58 120.447 148.848 120.447L148.847 120.448ZM158.345 120.34V119.223H153.7L156.658 116.891C157.133 116.515 157.481 116.162 157.703 115.833C157.924 115.504 158.034 115.144 158.034 114.753C158.034 114.073 157.735 113.538 157.138 113.147C156.54 112.756 155.771 112.561 154.83 112.561C153.828 112.561 153.033 112.775 152.445 113.201C151.857 113.627 151.562 114.238 151.562 115.033V115.462L153.179 115.581V115.017C153.179 114.519 153.327 114.156 153.623 113.929C153.919 113.701 154.325 113.588 154.837 113.588C155.326 113.588 155.714 113.691 156.002 113.897C156.289 114.103 156.432 114.39 156.432 114.759C156.432 115.235 156.096 115.736 155.423 116.263L151.4 119.406V120.34H158.345ZM165.266 120.34V118.841H166.649V117.729H165.265V112.68H162.791L158.916 117.724V118.841H163.644V120.34H165.267H165.266ZM163.643 117.729H160.496L163.643 113.475V117.729V117.729ZM169.442 115.94C169.733 115.944 170.021 115.902 170.29 115.817C170.558 115.732 170.801 115.606 171.002 115.446C171.43 115.113 171.644 114.714 171.644 114.249C171.644 113.786 171.43 113.391 171.002 113.061C170.801 112.901 170.558 112.775 170.29 112.69C170.021 112.605 169.733 112.563 169.442 112.567C168.835 112.567 168.315 112.732 167.882 113.061C167.673 113.215 167.508 113.399 167.396 113.604C167.284 113.808 167.229 114.027 167.233 114.249C167.233 114.717 167.448 115.117 167.878 115.446C168.309 115.776 168.83 115.94 169.442 115.94ZM170.218 120.346L175.54 112.669H174.128L168.821 120.346H170.218ZM169.442 115.087C169.141 115.087 168.882 115.005 168.665 114.842C168.561 114.766 168.478 114.673 168.422 114.571C168.366 114.469 168.338 114.359 168.341 114.249C168.341 114.015 168.449 113.82 168.665 113.66C168.767 113.583 168.889 113.522 169.022 113.481C169.155 113.44 169.298 113.419 169.442 113.421C169.748 113.421 170.007 113.502 170.218 113.663C170.43 113.824 170.536 114.019 170.536 114.249C170.536 114.481 170.431 114.679 170.222 114.842C170.012 115.005 169.753 115.087 169.442 115.087V115.087ZM174.996 120.431C175.603 120.431 176.119 120.267 176.545 119.937C176.751 119.783 176.914 119.598 177.024 119.394C177.134 119.189 177.188 118.971 177.184 118.75C177.184 118.285 176.97 117.888 176.542 117.56C176.342 117.402 176.102 117.277 175.836 117.192C175.57 117.108 175.284 117.066 174.996 117.069C174.385 117.069 173.862 117.232 173.429 117.56C173.22 117.714 173.054 117.899 172.942 118.104C172.831 118.309 172.776 118.529 172.78 118.75C172.78 119.216 172.995 119.613 173.426 119.94C173.856 120.267 174.38 120.431 174.995 120.431H174.996ZM174.996 119.583C174.686 119.583 174.425 119.501 174.213 119.338C174.11 119.262 174.029 119.17 173.975 119.069C173.92 118.968 173.893 118.859 173.895 118.75C173.895 118.514 174.001 118.315 174.213 118.154C174.315 118.075 174.437 118.013 174.572 117.971C174.706 117.93 174.851 117.91 174.996 117.912C175.292 117.912 175.55 117.994 175.769 118.159C175.988 118.324 176.097 118.521 176.097 118.75C176.097 118.979 175.988 119.175 175.772 119.338C175.556 119.501 175.297 119.583 174.996 119.583Z" fill="#1E272E"/>
<path d="M191.945 19.4891H35.2928C33.7168 19.4891 32.4392 20.4617 32.4392 21.6614V75.9936C32.4392 77.1933 33.7168 78.1658 35.2928 78.1658H191.945C193.521 78.1658 194.798 77.1933 194.798 75.9936V21.6614C194.798 20.4617 193.521 19.4891 191.945 19.4891Z" fill="#FAFAFA"/>
<path d="M52.9753 65.5481C54.4006 65.5481 55.6798 65.3532 56.8141 64.9638C57.9484 64.5663 58.8494 63.9857 59.5164 63.2216C60.1842 62.4575 60.5181 61.575 60.5181 60.5741C60.5181 59.5885 60.1863 58.7293 59.5243 57.9956C58.8615 57.2625 57.9634 56.7048 56.8291 56.323C57.6324 55.9635 58.2644 55.4953 58.7267 54.9186C59.1883 54.3419 59.4187 53.6983 59.4187 52.9874C59.4187 51.7498 58.8088 50.7359 57.5895 49.9451C56.3696 49.1539 54.8322 48.7585 52.9753 48.7585C51.0883 48.7585 49.5324 49.1523 48.3082 49.9392C47.0833 50.7261 46.4712 51.7422 46.4712 52.9874C46.4712 53.6983 46.7066 54.3419 47.1789 54.9186C47.6504 55.4953 48.2975 55.9635 49.1208 56.3224C47.9665 56.6972 47.0604 57.2511 46.4027 57.9842C45.7464 58.7174 45.4175 59.5809 45.4175 60.5747C45.4175 61.575 45.7506 62.4575 46.4184 63.2216C47.0861 63.9857 47.9893 64.5646 49.1286 64.9578C50.2679 65.3515 51.5499 65.5481 52.9753 65.5481ZM52.9753 55.5089C52.0514 55.5089 51.2738 55.2814 50.6417 54.8268C50.0089 54.3723 49.6929 53.8091 49.6929 53.1368C49.6929 52.4797 50.0089 51.9274 50.6417 51.4804C51.2738 51.0335 52.0514 50.8103 52.9745 50.8103C53.8884 50.8103 54.661 51.0335 55.2931 51.4804C55.9259 51.9274 56.2419 52.4797 56.2419 53.1368C56.2419 53.8015 55.9238 54.363 55.286 54.8214C54.6489 55.2797 53.8784 55.5089 52.9745 55.5089H52.9753ZM52.9753 63.1646C51.801 63.1646 50.8272 62.9007 50.0546 62.3733C49.2813 61.8466 48.8953 61.1433 48.8953 60.2651C48.8953 59.4017 49.2813 58.7103 50.0546 58.1906C50.8272 57.6709 51.801 57.4113 52.9753 57.4113C54.1295 57.4113 55.0926 57.6709 55.866 58.1906C56.6386 58.7103 57.0252 59.4017 57.0252 60.2651C57.0252 61.1357 56.6386 61.8368 55.866 62.3679C55.0926 62.899 54.1295 63.1646 52.9753 63.1646ZM68.4825 65.3304L75.4232 58.3394C76.6873 57.0409 77.3201 55.7229 77.3201 54.3858C77.3201 53.316 76.9784 52.3515 76.2964 51.4918C75.6294 50.6436 74.6682 49.9518 73.5184 49.4922C72.3484 49.0187 71.0514 48.7819 69.6268 48.7819C68.2314 48.7819 66.9494 49.0165 65.7801 49.4863C64.6101 49.9566 63.677 50.6289 62.9793 51.5032C62.2816 52.3781 61.9377 53.3622 61.9484 54.4543C61.9584 55.5241 62.2923 56.4734 62.9493 57.3021C63.6071 58.1314 64.4525 58.7597 65.4862 59.1877C66.5108 59.6138 67.6609 59.8347 68.8285 59.8296C69.3 59.8296 69.7516 59.7948 70.1839 59.7264L64.4625 65.3304H68.4825V65.3304ZM69.7167 57.8577C68.4325 57.8577 67.381 57.5509 66.5627 56.9356C65.7444 56.3208 65.3307 55.5127 65.3207 54.5118C65.3107 53.5262 65.7223 52.7257 66.5549 52.1109C67.3881 51.4956 68.4418 51.1882 69.7167 51.1882C71.0115 51.1882 72.0552 51.4864 72.8485 52.0821C73.6411 52.6784 74.0377 53.4805 74.0377 54.489C74.0377 55.4437 73.634 56.2442 72.8257 56.8894C72.0181 57.5357 70.9815 57.8582 69.7167 57.8582V57.8577ZM82.3182 65.5595C82.9003 65.5595 83.3997 65.4031 83.8163 65.0898C84.0176 64.9436 84.177 64.7673 84.2846 64.572C84.3921 64.3767 84.4455 64.1665 84.4413 63.9548C84.4413 63.5122 84.233 63.132 83.8163 62.8143C83.6225 62.6614 83.3896 62.5404 83.1319 62.4586C82.8742 62.3769 82.5973 62.3362 82.3182 62.3391C81.7461 62.3391 81.2495 62.4977 80.8272 62.8149C80.4063 63.132 80.1958 63.5122 80.1958 63.9553C80.1958 64.3903 80.4063 64.7667 80.8279 65.0838C81.2488 65.401 81.7461 65.5595 82.3189 65.5595H82.3182ZM92.4656 65.3304L102.567 51.0856V48.9877H87.6487V51.3604H98.6694L88.5212 65.3298H92.4663L92.4656 65.3304ZM116.991 65.3304V62.1328H119.942V59.7606H116.991V48.9877H111.707L103.441 59.7492V62.1333H113.529V65.3304H116.991V65.3304ZM113.529 59.7606H106.814L113.529 50.6843V59.7606ZM125.724 55.9445C127.029 55.9445 128.137 55.5931 129.051 54.8898C129.964 54.1795 130.421 53.3274 130.421 52.3341C130.421 51.349 129.964 50.5045 129.051 49.8018C128.138 49.0985 127.029 48.7471 125.724 48.7471C124.429 48.7471 123.32 49.0985 122.396 49.8018C121.473 50.5045 121.011 51.349 121.011 52.3341C121.011 53.335 121.47 54.1871 122.389 54.8898C123.307 55.5931 124.419 55.9445 125.724 55.9445ZM127.38 65.3418L138.732 48.9649H135.721L124.399 65.3418H127.38ZM125.724 54.1219C125.082 54.1219 124.529 53.9481 124.067 53.6006C123.844 53.4371 123.667 53.2402 123.548 53.0223C123.429 52.8044 123.37 52.5701 123.375 52.3341C123.375 51.8378 123.606 51.4196 124.067 51.0796C124.285 50.9146 124.543 50.7845 124.828 50.6968C125.112 50.6091 125.417 50.5657 125.724 50.5691C126.376 50.5691 126.928 50.7413 127.38 51.0851C127.831 51.4288 128.057 51.8454 128.057 52.3341C128.057 52.831 127.834 53.253 127.387 53.6006C126.941 53.9481 126.386 54.1219 125.724 54.1219ZM137.573 65.5253C138.867 65.5253 139.969 65.174 140.877 64.4707C141.785 63.7679 142.24 62.9235 142.24 61.9383C142.24 60.9445 141.783 60.099 140.87 59.3995C139.956 58.7005 138.857 58.3514 137.573 58.3514C136.267 58.3514 135.153 58.7005 134.23 59.3995C133.306 60.099 132.845 60.9451 132.845 61.9383C132.845 62.9311 133.304 63.7772 134.222 64.4767C135.141 65.1756 136.257 65.5248 137.573 65.5248V65.5253ZM137.573 63.7142C136.909 63.7142 136.353 63.5404 135.901 63.1928C135.682 63.0296 135.509 62.8342 135.393 62.6186C135.276 62.4029 135.219 62.1715 135.223 61.9383C135.223 61.4338 135.45 61.0097 135.901 60.6659C136.353 60.3222 136.91 60.15 137.573 60.15C138.205 60.15 138.754 60.326 139.221 60.6773C139.688 61.0287 139.921 61.449 139.921 61.9383C139.921 62.4271 139.69 62.8453 139.228 63.1928C138.767 63.5404 138.215 63.7142 137.573 63.7142Z" fill="#343A40"/>
<defs>
<filter id="filter0_d_1_190" x="0.876343" y="0.687561" width="225.484" height="167.622" filterUnits="userSpaceOnUse" color-interpolation-filters="sRGB">
<feFlood flood-opacity="0" result="BackgroundImageFix"/>
<feColorMatrix in="SourceAlpha" type="matrix" values="0 0 0 0 0 0 0 0 0 0 0 0 0 0 0 0 0 0 127 0" result="hardAlpha"/>
<feOffset dy="10"/>
<feGaussianBlur stdDeviation="10"/>
<feColorMatrix type="matrix" values="0 0 0 0 0.311766 0 0 0 0 0.336514 0 0 0 0 0.386011 0 0 0 0.03 0"/>
<feBlend mode="normal" in2="BackgroundImageFix" result="effect1_dropShadow_1_190"/>
<feBlend mode="normal" in="SourceGraphic" in2="effect1_dropShadow_1_190" result="shape"/>
</filter>
</defs>
</svg>
