<svg width="20" height="21" viewBox="0 0 20 21" fill="none" xmlns="http://www.w3.org/2000/svg">
<g clip-path="url(#clip0_1_266)">
<path d="M18.896 0.660645H1.104C0.494 0.660645 0 1.15464 0 1.76464V19.5576C0 20.1666 0.494 20.6606 1.104 20.6606H10.684V12.9156H8.076V9.89764H10.682V7.67064C10.682 5.08764 12.26 3.68064 14.565 3.68064C15.669 3.68064 16.617 3.76264 16.894 3.79964V6.49964H15.296C14.042 6.49964 13.8 7.09664 13.8 7.96964V9.89764H16.789L16.399 12.9156H13.799V20.6606H18.897C19.505 20.6606 19.999 20.1666 19.999 19.5566V1.76464C20 1.15464 19.506 0.660645 18.896 0.660645Z" fill="white"/>
</g>
<defs>
<clipPath id="clip0_1_266">
<rect width="20" height="20" fill="white" transform="translate(0 0.660645)"/>
</clipPath>
</defs>
</svg>
