<svg width="121" height="25" viewBox="0 0 121 25" fill="none" xmlns="http://www.w3.org/2000/svg">
<path d="M15.2964 17.5234V9.26738C15.2964 7.69038 15.6624 6.44738 16.3944 5.53738C17.1274 4.62738 18.0444 4.17238 19.1444 4.17238C21.3024 4.17238 22.3814 5.74938 22.3814 8.90338V17.5234H26.1634V7.94338C26.1634 5.52838 25.6634 3.72338 24.6604 2.52638C23.6584 1.32938 22.2274 0.731384 20.3664 0.731384C19.1444 0.731384 18.0264 0.965384 17.0144 1.43438C16.0081 1.89777 15.1295 2.59892 14.4544 3.47738H14.3884C13.4084 1.64638 11.7684 0.731384 9.46642 0.731384C8.49742 0.731384 7.56442 0.948384 6.66742 1.38438C5.75575 1.83166 4.95272 2.47258 4.31442 3.26238H4.26442V0.979384H0.482422V17.5064H4.26442V9.26738C4.26442 7.69038 4.63642 6.44738 5.37942 5.53738C6.12242 4.62738 7.07242 4.17238 8.22842 4.17238C10.4184 4.17238 11.5144 5.74938 11.5144 8.90338V17.5234H15.2964V17.5234ZM36.3974 17.7714C38.6434 17.7714 40.3944 16.9444 41.6494 15.2894H41.6994V17.5064H45.3154V0.979384H41.5334V2.96438H41.4674C40.2124 1.47538 38.5124 0.731384 36.3644 0.731384C35.3026 0.723844 34.2506 0.934284 33.2734 1.34968C32.2963 1.76508 31.4148 2.37659 30.6834 3.14638C29.9784 3.89638 29.4234 4.80638 29.0154 5.87638C28.6028 6.97596 28.3957 8.14198 28.4044 9.31638C28.4044 10.5744 28.6074 11.7324 29.0144 12.7914C29.4224 13.8504 29.9784 14.7434 30.6834 15.4714C31.4005 16.2078 32.2641 16.7856 33.2184 17.1674C34.2287 17.5748 35.3091 17.78 36.3984 17.7714H36.3974ZM36.9924 14.3304C35.5934 14.3304 34.4544 13.8644 33.5734 12.9324C32.6934 12.0004 32.2524 10.8004 32.2524 9.33338C32.2524 7.77838 32.7064 6.52938 33.6144 5.58638C34.5234 4.64338 35.6544 4.17238 37.0084 4.17238C38.3514 4.17238 39.4664 4.66538 40.3534 5.65238C41.2394 6.64038 41.6834 7.86738 41.6834 9.33338C41.6834 10.8004 41.2284 12.0004 40.3204 12.9324C39.4114 13.8644 38.3024 14.3304 36.9924 14.3304V14.3304ZM64.1044 17.5234V7.77838C64.1044 5.38538 63.5684 3.61238 62.4944 2.45938C61.4224 1.30738 59.9374 0.731384 58.0444 0.731384C56.9914 0.725679 55.9493 0.945613 54.9884 1.37638C54.0325 1.80527 53.1858 2.44451 52.5114 3.24638H52.4614V0.978384H48.6794V17.5054H52.4614V9.20138C52.4614 7.61338 52.8494 6.37838 53.6254 5.49538C54.4024 4.61338 55.4394 4.17238 56.7384 4.17238C57.3334 4.17238 57.8424 4.24938 58.2664 4.40338C58.6904 4.55838 59.0624 4.80938 59.3814 5.15638C59.7014 5.50438 59.9374 5.97538 60.0914 6.57138C60.2454 7.16638 60.3224 7.89438 60.3224 8.75438V17.5234H64.1044V17.5234ZM74.3224 17.7714C76.5684 17.7714 78.3184 16.9444 79.5744 15.2894H79.6244V17.5064H83.2404V0.979384H79.4584V2.96438H79.3924C78.1374 1.47538 76.4364 0.731384 74.2894 0.731384C73.2275 0.723707 72.1753 0.93408 71.1979 1.34948C70.2206 1.76488 69.3389 2.37647 68.6074 3.14638C67.9034 3.89638 67.3474 4.80638 66.9394 5.87638C66.5272 6.97602 66.3204 8.14204 66.3294 9.31638C66.3294 10.5744 66.5324 11.7324 66.9394 12.7914C67.3474 13.8504 67.9034 14.7434 68.6074 15.4714C69.3248 16.2079 70.1887 16.7857 71.1434 17.1674C72.1534 17.5747 73.2334 17.7799 74.3224 17.7714V17.7714ZM74.9164 14.3304C73.5184 14.3304 72.3784 13.8644 71.4984 12.9324C70.6174 12.0004 70.1764 10.8004 70.1764 9.33338C70.1764 7.77838 70.6314 6.52938 71.5394 5.58638C72.4474 4.64338 73.5794 4.17238 74.9334 4.17238C76.2764 4.17238 77.3914 4.66538 78.2774 5.65238C79.1634 6.64038 79.6074 7.86738 79.6074 9.33338C79.6074 10.8004 79.1524 12.0004 78.2444 12.9324C77.3364 13.8644 76.2264 14.3304 74.9164 14.3304V14.3304ZM93.9864 24.4554C95.1864 24.4554 96.2604 24.3154 97.2064 24.0334C98.1534 23.7524 98.9494 23.3604 99.5934 22.8584C100.241 22.3525 100.785 21.7264 101.195 21.0144C101.624 20.2732 101.933 19.469 102.111 18.6314C102.299 17.7714 102.392 16.8284 102.392 15.8024V0.979384H98.6104V2.71638H98.5444C97.8668 2.06838 97.0669 1.56186 96.1914 1.22638C95.3089 0.885417 94.3705 0.711791 93.4244 0.714384C91.9164 0.714384 90.5624 1.07238 89.3624 1.78938C88.1624 2.50638 87.2284 3.50238 86.5624 4.77638C85.8964 6.04938 85.5634 7.48138 85.5634 9.06938C85.5634 10.6794 85.9134 12.1074 86.6124 13.3544C87.3114 14.6004 88.2724 15.5574 89.4944 16.2244C90.7164 16.8914 92.0924 17.2254 93.6234 17.2254C95.6704 17.2254 97.3394 16.5524 98.6274 15.2074H98.6934V16.9604C98.6934 18.1304 98.2634 19.1004 97.4054 19.8724C96.5454 20.6444 95.3354 21.0304 93.7714 21.0304C92.7034 21.0304 91.7654 20.8984 90.9554 20.6334C90.1464 20.3684 89.2134 19.9554 88.1564 19.3934L87.2644 22.7344C88.1894 23.2864 89.2304 23.7104 90.3864 24.0084C91.5424 24.3064 92.7424 24.4554 93.9864 24.4554V24.4554ZM94.1184 13.7354C92.7534 13.7354 91.6274 13.3014 90.7414 12.4354C89.8544 11.5704 89.4114 10.4094 89.4114 8.95338C89.4114 7.55338 89.8464 6.41138 90.7164 5.52838C91.5864 4.64638 92.7204 4.20538 94.1184 4.20538C95.4504 4.20538 96.5604 4.64038 97.4464 5.51238C98.3324 6.38338 98.7764 7.51438 98.7764 8.90338C98.7764 10.3044 98.3434 11.4594 97.4794 12.3694C96.6154 13.2794 95.4944 13.7344 94.1184 13.7344V13.7354ZM113.204 17.7714C114.746 17.7714 116.103 17.4904 117.275 16.9274C118.448 16.3654 119.408 15.6044 120.157 14.6444L117.515 12.3784C116.48 13.6794 115.109 14.3304 113.402 14.3304C112.192 14.3304 111.165 13.9934 110.322 13.3204C109.48 12.6484 108.938 11.7274 108.695 10.5584H120.719C120.785 10.1614 120.818 9.65838 120.818 9.05238C120.818 7.45338 120.493 6.02538 119.843 4.76738C119.213 3.53031 118.238 2.50199 117.036 1.80638C115.814 1.08938 114.404 0.731384 112.808 0.731384C111.715 0.723194 110.631 0.934004 109.62 1.35138C108.63 1.76538 107.776 2.34138 107.06 3.08038C106.345 3.81938 105.783 4.71838 105.376 5.77638C104.969 6.83638 104.765 7.98838 104.765 9.23438C104.765 10.9224 105.134 12.4194 105.871 13.7264C106.609 15.0334 107.617 16.0344 108.894 16.7294C110.171 17.4244 111.608 17.7714 113.204 17.7714ZM117.019 7.49738H108.762C109.026 6.43838 109.538 5.61938 110.297 5.04038C111.057 4.46138 111.96 4.17238 113.006 4.17238C114.063 4.17238 114.936 4.47038 115.624 5.06538C116.312 5.66138 116.777 6.47138 117.019 7.49738Z" fill="white"/>
</svg>
