<svg width="284" height="68" viewBox="0 0 284 68" fill="none" xmlns="http://www.w3.org/2000/svg">
<path d="M97.918 18.3164C97.7852 20.1523 97.1055 21.5977 95.8789 22.6523C94.6602 23.707 93.0508 24.2344 91.0508 24.2344C88.8633 24.2344 87.1406 23.5 85.8828 22.0312C84.6328 20.5547 84.0078 18.5312 84.0078 15.9609V14.918C84.0078 13.2773 84.2969 11.832 84.875 10.582C85.4531 9.33203 86.2773 8.375 87.3477 7.71094C88.4258 7.03906 89.6758 6.70312 91.0977 6.70312C93.0664 6.70312 94.6523 7.23047 95.8555 8.28516C97.0586 9.33984 97.7539 10.8203 97.9414 12.7266H94.4258C94.3398 11.625 94.0312 10.8281 93.5 10.3359C92.9766 9.83594 92.1758 9.58594 91.0977 9.58594C89.9258 9.58594 89.0469 10.0078 88.4609 10.8516C87.8828 11.6875 87.5859 12.9883 87.5703 14.7539V16.043C87.5703 17.8867 87.8477 19.2344 88.4023 20.0859C88.9648 20.9375 89.8477 21.3633 91.0508 21.3633C92.1367 21.3633 92.9453 21.1172 93.4766 20.625C94.0156 20.125 94.3242 19.3555 94.4023 18.3164H97.918ZM99.4766 17.543C99.4766 16.2852 99.7188 15.1641 100.203 14.1797C100.688 13.1953 101.383 12.4336 102.289 11.8945C103.203 11.3555 104.262 11.0859 105.465 11.0859C107.176 11.0859 108.57 11.6094 109.648 12.6562C110.734 13.7031 111.34 15.125 111.465 16.9219L111.488 17.7891C111.488 19.7344 110.945 21.2969 109.859 22.4766C108.773 23.6484 107.316 24.2344 105.488 24.2344C103.66 24.2344 102.199 23.6484 101.105 22.4766C100.02 21.3047 99.4766 19.7109 99.4766 17.6953V17.543ZM102.863 17.7891C102.863 18.9922 103.09 19.9141 103.543 20.5547C103.996 21.1875 104.645 21.5039 105.488 21.5039C106.309 21.5039 106.949 21.1914 107.41 20.5664C107.871 19.9336 108.102 18.9258 108.102 17.543C108.102 16.3633 107.871 15.4492 107.41 14.8008C106.949 14.1523 106.301 13.8281 105.465 13.8281C104.637 13.8281 103.996 14.1523 103.543 14.8008C103.09 15.4414 102.863 16.4375 102.863 17.7891ZM120.699 14.4961C120.238 14.4336 119.832 14.4023 119.48 14.4023C118.199 14.4023 117.359 14.8359 116.961 15.7031V24H113.574V11.3203H116.773L116.867 12.832C117.547 11.668 118.488 11.0859 119.691 11.0859C120.066 11.0859 120.418 11.1367 120.746 11.2383L120.699 14.4961ZM129.465 14.4961C129.004 14.4336 128.598 14.4023 128.246 14.4023C126.965 14.4023 126.125 14.8359 125.727 15.7031V24H122.34V11.3203H125.539L125.633 12.832C126.312 11.668 127.254 11.0859 128.457 11.0859C128.832 11.0859 129.184 11.1367 129.512 11.2383L129.465 14.4961ZM136.707 24.2344C134.848 24.2344 133.332 23.6641 132.16 22.5234C130.996 21.3828 130.414 19.8633 130.414 17.9648V17.6367C130.414 16.3633 130.66 15.2266 131.152 14.2266C131.645 13.2188 132.34 12.4453 133.238 11.9062C134.145 11.3594 135.176 11.0859 136.332 11.0859C138.066 11.0859 139.43 11.6328 140.422 12.7266C141.422 13.8203 141.922 15.3711 141.922 17.3789V18.7617H133.848C133.957 19.5898 134.285 20.2539 134.832 20.7539C135.387 21.2539 136.086 21.5039 136.93 21.5039C138.234 21.5039 139.254 21.0312 139.988 20.0859L141.652 21.9492C141.145 22.668 140.457 23.2305 139.59 23.6367C138.723 24.0352 137.762 24.2344 136.707 24.2344ZM136.32 13.8281C135.648 13.8281 135.102 14.0547 134.68 14.5078C134.266 14.9609 134 15.6094 133.883 16.4531H138.594V16.1836C138.578 15.4336 138.375 14.8555 137.984 14.4492C137.594 14.0352 137.039 13.8281 136.32 13.8281ZM143.328 17.543C143.328 16.2852 143.57 15.1641 144.055 14.1797C144.539 13.1953 145.234 12.4336 146.141 11.8945C147.055 11.3555 148.113 11.0859 149.316 11.0859C151.027 11.0859 152.422 11.6094 153.5 12.6562C154.586 13.7031 155.191 15.125 155.316 16.9219L155.34 17.7891C155.34 19.7344 154.797 21.2969 153.711 22.4766C152.625 23.6484 151.168 24.2344 149.34 24.2344C147.512 24.2344 146.051 23.6484 144.957 22.4766C143.871 21.3047 143.328 19.7109 143.328 17.6953V17.543ZM146.715 17.7891C146.715 18.9922 146.941 19.9141 147.395 20.5547C147.848 21.1875 148.496 21.5039 149.34 21.5039C150.16 21.5039 150.801 21.1914 151.262 20.5664C151.723 19.9336 151.953 18.9258 151.953 17.543C151.953 16.3633 151.723 15.4492 151.262 14.8008C150.801 14.1523 150.152 13.8281 149.316 13.8281C148.488 13.8281 147.848 14.1523 147.395 14.8008C146.941 15.4414 146.715 16.4375 146.715 17.7891ZM173.891 16.6055H167.141V21.1758H175.062V24H163.625V6.9375H175.039V9.78516H167.141V13.8516H173.891V16.6055ZM180.477 24H177.078V6H180.477V24ZM189.113 24.2344C187.254 24.2344 185.738 23.6641 184.566 22.5234C183.402 21.3828 182.82 19.8633 182.82 17.9648V17.6367C182.82 16.3633 183.066 15.2266 183.559 14.2266C184.051 13.2188 184.746 12.4453 185.645 11.9062C186.551 11.3594 187.582 11.0859 188.738 11.0859C190.473 11.0859 191.836 11.6328 192.828 12.7266C193.828 13.8203 194.328 15.3711 194.328 17.3789V18.7617H186.254C186.363 19.5898 186.691 20.2539 187.238 20.7539C187.793 21.2539 188.492 21.5039 189.336 21.5039C190.641 21.5039 191.66 21.0312 192.395 20.0859L194.059 21.9492C193.551 22.668 192.863 23.2305 191.996 23.6367C191.129 24.0352 190.168 24.2344 189.113 24.2344ZM188.727 13.8281C188.055 13.8281 187.508 14.0547 187.086 14.5078C186.672 14.9609 186.406 15.6094 186.289 16.4531H191V16.1836C190.984 15.4336 190.781 14.8555 190.391 14.4492C190 14.0352 189.445 13.8281 188.727 13.8281ZM201.535 21.5039C202.16 21.5039 202.668 21.332 203.059 20.9883C203.449 20.6445 203.652 20.1875 203.668 19.6172H206.844C206.836 20.4766 206.602 21.2656 206.141 21.9844C205.68 22.6953 205.047 23.25 204.242 23.6484C203.445 24.0391 202.562 24.2344 201.594 24.2344C199.781 24.2344 198.352 23.6602 197.305 22.5117C196.258 21.3555 195.734 19.7617 195.734 17.7305V17.5078C195.734 15.5547 196.254 13.9961 197.293 12.832C198.332 11.668 199.758 11.0859 201.57 11.0859C203.156 11.0859 204.426 11.5391 205.379 12.4453C206.34 13.3438 206.828 14.543 206.844 16.043H203.668C203.652 15.3867 203.449 14.8555 203.059 14.4492C202.668 14.0352 202.152 13.8281 201.512 13.8281C200.723 13.8281 200.125 14.1172 199.719 14.6953C199.32 15.2656 199.121 16.1953 199.121 17.4844V17.8359C199.121 19.1406 199.32 20.0781 199.719 20.6484C200.117 21.2188 200.723 21.5039 201.535 21.5039ZM212.832 8.20312V11.3203H215V13.8047H212.832V20.1328C212.832 20.6016 212.922 20.9375 213.102 21.1406C213.281 21.3438 213.625 21.4453 214.133 21.4453C214.508 21.4453 214.84 21.418 215.129 21.3633V23.9297C214.465 24.1328 213.781 24.2344 213.078 24.2344C210.703 24.2344 209.492 23.0352 209.445 20.6367V13.8047H207.594V11.3203H209.445V8.20312H212.832ZM224.012 14.4961C223.551 14.4336 223.145 14.4023 222.793 14.4023C221.512 14.4023 220.672 14.8359 220.273 15.7031V24H216.887V11.3203H220.086L220.18 12.832C220.859 11.668 221.801 11.0859 223.004 11.0859C223.379 11.0859 223.73 11.1367 224.059 11.2383L224.012 14.4961ZM224.703 17.543C224.703 16.2852 224.945 15.1641 225.43 14.1797C225.914 13.1953 226.609 12.4336 227.516 11.8945C228.43 11.3555 229.488 11.0859 230.691 11.0859C232.402 11.0859 233.797 11.6094 234.875 12.6562C235.961 13.7031 236.566 15.125 236.691 16.9219L236.715 17.7891C236.715 19.7344 236.172 21.2969 235.086 22.4766C234 23.6484 232.543 24.2344 230.715 24.2344C228.887 24.2344 227.426 23.6484 226.332 22.4766C225.246 21.3047 224.703 19.7109 224.703 17.6953V17.543ZM228.09 17.7891C228.09 18.9922 228.316 19.9141 228.77 20.5547C229.223 21.1875 229.871 21.5039 230.715 21.5039C231.535 21.5039 232.176 21.1914 232.637 20.5664C233.098 19.9336 233.328 18.9258 233.328 17.543C233.328 16.3633 233.098 15.4492 232.637 14.8008C232.176 14.1523 231.527 13.8281 230.691 13.8281C229.863 13.8281 229.223 14.1523 228.77 14.8008C228.316 15.4414 228.09 16.4375 228.09 17.7891ZM231.359 6H235.051L231.805 9.63281H229.051L231.359 6ZM241.918 11.3203L242.023 12.7852C242.93 11.6523 244.145 11.0859 245.668 11.0859C247.012 11.0859 248.012 11.4805 248.668 12.2695C249.324 13.0586 249.66 14.2383 249.676 15.8086V24H246.289V15.8906C246.289 15.1719 246.133 14.6523 245.82 14.332C245.508 14.0039 244.988 13.8398 244.262 13.8398C243.309 13.8398 242.594 14.2461 242.117 15.0586V24H238.73V11.3203H241.918ZM255.828 24H252.43V11.3203H255.828V24ZM252.23 8.03906C252.23 7.53125 252.398 7.11328 252.734 6.78516C253.078 6.45703 253.543 6.29297 254.129 6.29297C254.707 6.29297 255.168 6.45703 255.512 6.78516C255.855 7.11328 256.027 7.53125 256.027 8.03906C256.027 8.55469 255.852 8.97656 255.5 9.30469C255.156 9.63281 254.699 9.79688 254.129 9.79688C253.559 9.79688 253.098 9.63281 252.746 9.30469C252.402 8.97656 252.23 8.55469 252.23 8.03906ZM263.902 21.5039C264.527 21.5039 265.035 21.332 265.426 20.9883C265.816 20.6445 266.02 20.1875 266.035 19.6172H269.211C269.203 20.4766 268.969 21.2656 268.508 21.9844C268.047 22.6953 267.414 23.25 266.609 23.6484C265.812 24.0391 264.93 24.2344 263.961 24.2344C262.148 24.2344 260.719 23.6602 259.672 22.5117C258.625 21.3555 258.102 19.7617 258.102 17.7305V17.5078C258.102 15.5547 258.621 13.9961 259.66 12.832C260.699 11.668 262.125 11.0859 263.938 11.0859C265.523 11.0859 266.793 11.5391 267.746 12.4453C268.707 13.3438 269.195 14.543 269.211 16.043H266.035C266.02 15.3867 265.816 14.8555 265.426 14.4492C265.035 14.0352 264.52 13.8281 263.879 13.8281C263.09 13.8281 262.492 14.1172 262.086 14.6953C261.688 15.2656 261.488 16.1953 261.488 17.4844V17.8359C261.488 19.1406 261.688 20.0781 262.086 20.6484C262.484 21.2188 263.09 21.5039 263.902 21.5039ZM270.617 17.543C270.617 16.2852 270.859 15.1641 271.344 14.1797C271.828 13.1953 272.523 12.4336 273.43 11.8945C274.344 11.3555 275.402 11.0859 276.605 11.0859C278.316 11.0859 279.711 11.6094 280.789 12.6562C281.875 13.7031 282.48 15.125 282.605 16.9219L282.629 17.7891C282.629 19.7344 282.086 21.2969 281 22.4766C279.914 23.6484 278.457 24.2344 276.629 24.2344C274.801 24.2344 273.34 23.6484 272.246 22.4766C271.16 21.3047 270.617 19.7109 270.617 17.6953V17.543ZM274.004 17.7891C274.004 18.9922 274.23 19.9141 274.684 20.5547C275.137 21.1875 275.785 21.5039 276.629 21.5039C277.449 21.5039 278.09 21.1914 278.551 20.5664C279.012 19.9336 279.242 18.9258 279.242 17.543C279.242 16.3633 279.012 15.4492 278.551 14.8008C278.09 14.1523 277.441 13.8281 276.605 13.8281C275.777 13.8281 275.137 14.1523 274.684 14.8008C274.23 15.4414 274.004 16.4375 274.004 17.7891Z" fill="white"/>
<path d="M87.8252 45V35.7578H90.6689C91.4814 35.7578 92.2072 35.9419 92.8462 36.3101C93.4894 36.674 93.9909 37.1945 94.3506 37.8716C94.7103 38.5444 94.8901 39.3104 94.8901 40.1694V40.5947C94.8901 41.4538 94.7124 42.2176 94.3569 42.8862C94.0057 43.5549 93.5085 44.0732 92.8652 44.4414C92.222 44.8096 91.4963 44.9958 90.688 45H87.8252ZM89.7295 37.3003V43.4702H90.6499C91.3947 43.4702 91.9639 43.2269 92.3574 42.7402C92.751 42.2536 92.952 41.5575 92.9604 40.6519V40.1631C92.9604 39.2236 92.7658 38.5127 92.3765 38.0303C91.9871 37.5436 91.418 37.3003 90.6689 37.3003H89.7295ZM98.0957 45H96.2549V38.1318H98.0957V45ZM96.147 36.3545C96.147 36.0794 96.238 35.853 96.4199 35.6753C96.6061 35.4976 96.8579 35.4087 97.1753 35.4087C97.4884 35.4087 97.7381 35.4976 97.9243 35.6753C98.1105 35.853 98.2036 36.0794 98.2036 36.3545C98.2036 36.6338 98.1084 36.8623 97.918 37.04C97.7318 37.2178 97.4842 37.3066 97.1753 37.3066C96.8664 37.3066 96.6167 37.2178 96.4263 37.04C96.2401 36.8623 96.147 36.6338 96.147 36.3545ZM103.472 39.8521C103.222 39.8182 103.002 39.8013 102.812 39.8013C102.118 39.8013 101.663 40.0361 101.447 40.5059V45H99.6128V38.1318H101.346L101.396 38.9507C101.765 38.3201 102.275 38.0049 102.926 38.0049C103.129 38.0049 103.32 38.0324 103.498 38.0874L103.472 39.8521ZM107.395 45.127C106.388 45.127 105.567 44.818 104.932 44.2002C104.302 43.5824 103.986 42.7593 103.986 41.731V41.5532C103.986 40.8634 104.12 40.2477 104.386 39.7061C104.653 39.1602 105.029 38.7412 105.516 38.4492C106.007 38.153 106.566 38.0049 107.192 38.0049C108.131 38.0049 108.87 38.3011 109.407 38.8936C109.949 39.486 110.22 40.326 110.22 41.4136V42.1626H105.846C105.905 42.6112 106.083 42.9709 106.379 43.2417C106.68 43.5125 107.059 43.6479 107.516 43.6479C108.222 43.6479 108.775 43.3919 109.172 42.8799L110.074 43.8892C109.799 44.2785 109.426 44.5832 108.957 44.8032C108.487 45.019 107.966 45.127 107.395 45.127ZM107.186 39.4902C106.822 39.4902 106.525 39.613 106.297 39.8584C106.073 40.1038 105.929 40.4551 105.865 40.9121H108.417V40.7661C108.409 40.3599 108.299 40.0467 108.087 39.8267C107.875 39.6024 107.575 39.4902 107.186 39.4902ZM114.124 43.6479C114.462 43.6479 114.737 43.5549 114.949 43.3687C115.16 43.1825 115.27 42.9349 115.279 42.626H116.999C116.995 43.0915 116.868 43.5189 116.618 43.9082C116.368 44.2933 116.026 44.5938 115.59 44.8096C115.158 45.0212 114.68 45.127 114.155 45.127C113.174 45.127 112.399 44.8159 111.832 44.1938C111.265 43.5675 110.981 42.7043 110.981 41.604V41.4834C110.981 40.4255 111.263 39.5812 111.826 38.9507C112.389 38.3201 113.161 38.0049 114.143 38.0049C115.002 38.0049 115.689 38.2503 116.206 38.7412C116.726 39.2279 116.991 39.8774 116.999 40.6899H115.279C115.27 40.3345 115.16 40.0467 114.949 39.8267C114.737 39.6024 114.458 39.4902 114.111 39.4902C113.683 39.4902 113.36 39.6468 113.14 39.96C112.924 40.2689 112.816 40.7725 112.816 41.4707V41.6611C112.816 42.3678 112.924 42.8757 113.14 43.1846C113.355 43.4935 113.683 43.6479 114.124 43.6479ZM120.903 43.6479C121.241 43.6479 121.516 43.5549 121.728 43.3687C121.94 43.1825 122.05 42.9349 122.058 42.626H123.778C123.774 43.0915 123.647 43.5189 123.397 43.9082C123.148 44.2933 122.805 44.5938 122.369 44.8096C121.938 45.0212 121.459 45.127 120.935 45.127C119.953 45.127 119.178 44.8159 118.611 44.1938C118.044 43.5675 117.761 42.7043 117.761 41.604V41.4834C117.761 40.4255 118.042 39.5812 118.605 38.9507C119.168 38.3201 119.94 38.0049 120.922 38.0049C121.781 38.0049 122.469 38.2503 122.985 38.7412C123.505 39.2279 123.77 39.8774 123.778 40.6899H122.058C122.05 40.3345 121.94 40.0467 121.728 39.8267C121.516 39.6024 121.237 39.4902 120.89 39.4902C120.463 39.4902 120.139 39.6468 119.919 39.96C119.703 40.2689 119.595 40.7725 119.595 41.4707V41.6611C119.595 42.3678 119.703 42.8757 119.919 43.1846C120.135 43.4935 120.463 43.6479 120.903 43.6479ZM126.762 45H124.921V38.1318H126.762V45ZM124.813 36.3545C124.813 36.0794 124.904 35.853 125.086 35.6753C125.272 35.4976 125.524 35.4087 125.841 35.4087C126.154 35.4087 126.404 35.4976 126.59 35.6753C126.777 35.853 126.87 36.0794 126.87 36.3545C126.87 36.6338 126.774 36.8623 126.584 37.04C126.398 37.2178 126.15 37.3066 125.841 37.3066C125.532 37.3066 125.283 37.2178 125.092 37.04C124.906 36.8623 124.813 36.6338 124.813 36.3545ZM127.993 41.5024C127.993 40.8211 128.124 40.2139 128.387 39.6807C128.649 39.1475 129.026 38.7349 129.517 38.4429C130.012 38.1509 130.585 38.0049 131.237 38.0049C132.164 38.0049 132.919 38.2884 133.503 38.8555C134.091 39.4225 134.419 40.1927 134.487 41.166L134.5 41.6357C134.5 42.6895 134.205 43.5358 133.617 44.1748C133.029 44.8096 132.24 45.127 131.25 45.127C130.259 45.127 129.468 44.8096 128.875 44.1748C128.287 43.54 127.993 42.6768 127.993 41.585V41.5024ZM129.828 41.6357C129.828 42.2874 129.95 42.7868 130.196 43.1338C130.441 43.4766 130.792 43.6479 131.25 43.6479C131.694 43.6479 132.041 43.4787 132.291 43.1401C132.54 42.7974 132.665 42.2515 132.665 41.5024C132.665 40.8634 132.54 40.3683 132.291 40.0171C132.041 39.6659 131.69 39.4902 131.237 39.4902C130.788 39.4902 130.441 39.6659 130.196 40.0171C129.95 40.3641 129.828 40.9036 129.828 41.6357ZM131.599 35.25H133.598L131.84 37.2178H130.348L131.599 35.25ZM137.318 38.1318L137.375 38.9253C137.866 38.3117 138.524 38.0049 139.349 38.0049C140.077 38.0049 140.619 38.2186 140.974 38.646C141.33 39.0734 141.512 39.7124 141.52 40.563V45H139.686V40.6074C139.686 40.2181 139.601 39.9367 139.432 39.7632C139.262 39.5854 138.981 39.4966 138.587 39.4966C138.071 39.4966 137.684 39.7166 137.426 40.1567V45H135.591V38.1318H137.318ZM145.868 41.5151C145.868 40.4445 146.107 39.5918 146.585 38.957C147.068 38.3223 147.726 38.0049 148.56 38.0049C149.228 38.0049 149.78 38.2546 150.216 38.7539V35.25H152.057V45H150.4L150.312 44.27C149.854 44.8413 149.266 45.127 148.547 45.127C147.739 45.127 147.089 44.8096 146.598 44.1748C146.111 43.5358 145.868 42.6493 145.868 41.5151ZM147.703 41.6484C147.703 42.2917 147.815 42.7847 148.039 43.1274C148.263 43.4702 148.589 43.6416 149.017 43.6416C149.584 43.6416 149.984 43.4025 150.216 42.9243V40.2139C149.988 39.7357 149.592 39.4966 149.029 39.4966C148.145 39.4966 147.703 40.2139 147.703 41.6484ZM156.64 45.127C155.633 45.127 154.812 44.818 154.177 44.2002C153.547 43.5824 153.231 42.7593 153.231 41.731V41.5532C153.231 40.8634 153.365 40.2477 153.631 39.7061C153.898 39.1602 154.275 38.7412 154.761 38.4492C155.252 38.153 155.811 38.0049 156.437 38.0049C157.376 38.0049 158.115 38.3011 158.652 38.8936C159.194 39.486 159.465 40.326 159.465 41.4136V42.1626H155.091C155.151 42.6112 155.328 42.9709 155.625 43.2417C155.925 43.5125 156.304 43.6479 156.761 43.6479C157.467 43.6479 158.02 43.3919 158.417 42.8799L159.319 43.8892C159.044 44.2785 158.671 44.5832 158.202 44.8032C157.732 45.019 157.211 45.127 156.64 45.127ZM156.431 39.4902C156.067 39.4902 155.771 39.613 155.542 39.8584C155.318 40.1038 155.174 40.4551 155.11 40.9121H157.662V40.7661C157.654 40.3599 157.544 40.0467 157.332 39.8267C157.12 39.6024 156.82 39.4902 156.431 39.4902ZM166.606 43.6479C166.944 43.6479 167.22 43.5549 167.431 43.3687C167.643 43.1825 167.753 42.9349 167.761 42.626H169.481C169.477 43.0915 169.35 43.5189 169.101 43.9082C168.851 44.2933 168.508 44.5938 168.072 44.8096C167.641 45.0212 167.162 45.127 166.638 45.127C165.656 45.127 164.882 44.8159 164.314 44.1938C163.747 43.5675 163.464 42.7043 163.464 41.604V41.4834C163.464 40.4255 163.745 39.5812 164.308 38.9507C164.871 38.3201 165.643 38.0049 166.625 38.0049C167.484 38.0049 168.172 38.2503 168.688 38.7412C169.208 39.2279 169.473 39.8774 169.481 40.6899H167.761C167.753 40.3345 167.643 40.0467 167.431 39.8267C167.22 39.6024 166.94 39.4902 166.593 39.4902C166.166 39.4902 165.842 39.6468 165.622 39.96C165.406 40.2689 165.298 40.7725 165.298 41.4707V41.6611C165.298 42.3678 165.406 42.8757 165.622 43.1846C165.838 43.4935 166.166 43.6479 166.606 43.6479ZM170.243 41.5024C170.243 40.8211 170.374 40.2139 170.637 39.6807C170.899 39.1475 171.276 38.7349 171.767 38.4429C172.262 38.1509 172.835 38.0049 173.487 38.0049C174.414 38.0049 175.169 38.2884 175.753 38.8555C176.341 39.4225 176.669 40.1927 176.737 41.166L176.75 41.6357C176.75 42.6895 176.455 43.5358 175.867 44.1748C175.279 44.8096 174.49 45.127 173.5 45.127C172.509 45.127 171.718 44.8096 171.125 44.1748C170.537 43.54 170.243 42.6768 170.243 41.585V41.5024ZM172.078 41.6357C172.078 42.2874 172.2 42.7868 172.446 43.1338C172.691 43.4766 173.042 43.6479 173.5 43.6479C173.944 43.6479 174.291 43.4787 174.541 43.1401C174.79 42.7974 174.915 42.2515 174.915 41.5024C174.915 40.8634 174.79 40.3683 174.541 40.0171C174.291 39.6659 173.94 39.4902 173.487 39.4902C173.038 39.4902 172.691 39.6659 172.446 40.0171C172.2 40.3641 172.078 40.9036 172.078 41.6357ZM181.739 39.8521C181.489 39.8182 181.269 39.8013 181.079 39.8013C180.385 39.8013 179.93 40.0361 179.714 40.5059V45H177.879V38.1318H179.612L179.663 38.9507C180.031 38.3201 180.541 38.0049 181.193 38.0049C181.396 38.0049 181.586 38.0324 181.764 38.0874L181.739 39.8521ZM186.487 39.8521C186.237 39.8182 186.017 39.8013 185.827 39.8013C185.133 39.8013 184.678 40.0361 184.462 40.5059V45H182.627V38.1318H184.36L184.411 38.9507C184.779 38.3201 185.289 38.0049 185.941 38.0049C186.144 38.0049 186.334 38.0324 186.512 38.0874L186.487 39.8521ZM190.41 45.127C189.403 45.127 188.582 44.818 187.947 44.2002C187.316 43.5824 187.001 42.7593 187.001 41.731V41.5532C187.001 40.8634 187.134 40.2477 187.401 39.7061C187.667 39.1602 188.044 38.7412 188.531 38.4492C189.022 38.153 189.58 38.0049 190.207 38.0049C191.146 38.0049 191.884 38.3011 192.422 38.8936C192.964 39.486 193.234 40.326 193.234 41.4136V42.1626H188.861C188.92 42.6112 189.098 42.9709 189.394 43.2417C189.694 43.5125 190.073 43.6479 190.53 43.6479C191.237 43.6479 191.789 43.3919 192.187 42.8799L193.088 43.8892C192.813 44.2785 192.441 44.5832 191.971 44.8032C191.501 45.019 190.981 45.127 190.41 45.127ZM190.2 39.4902C189.836 39.4902 189.54 39.613 189.312 39.8584C189.087 40.1038 188.943 40.4551 188.88 40.9121H191.432V40.7661C191.423 40.3599 191.313 40.0467 191.102 39.8267C190.89 39.6024 190.59 39.4902 190.2 39.4902ZM193.996 41.5024C193.996 40.8211 194.127 40.2139 194.39 39.6807C194.652 39.1475 195.029 38.7349 195.52 38.4429C196.015 38.1509 196.588 38.0049 197.24 38.0049C198.167 38.0049 198.922 38.2884 199.506 38.8555C200.094 39.4225 200.422 40.1927 200.49 41.166L200.502 41.6357C200.502 42.6895 200.208 43.5358 199.62 44.1748C199.032 44.8096 198.243 45.127 197.252 45.127C196.262 45.127 195.471 44.8096 194.878 44.1748C194.29 43.54 193.996 42.6768 193.996 41.585V41.5024ZM195.831 41.6357C195.831 42.2874 195.953 42.7868 196.199 43.1338C196.444 43.4766 196.795 43.6479 197.252 43.6479C197.697 43.6479 198.044 43.4787 198.293 43.1401C198.543 42.7974 198.668 42.2515 198.668 41.5024C198.668 40.8634 198.543 40.3683 198.293 40.0171C198.044 39.6659 197.693 39.4902 197.24 39.4902C196.791 39.4902 196.444 39.6659 196.199 40.0171C195.953 40.3641 195.831 40.9036 195.831 41.6357Z" fill="#8A8787"/>
<rect width="68" height="68" rx="34" fill="#786960"/>
<rect x="4.03207" y="4.06079" width="60" height="60" rx="29.5" fill="#8A8787"/>
<path d="M49.02 29.2347V19.6694C49.02 17.5699 47.3246 15.8625 45.2395 15.8625H16.8858C14.8008 15.8625 13.1054 17.5698 13.1054 19.6694V38.7035C13.1054 40.8029 14.8008 42.5103 16.8859 42.5103H38.0816C39.32 46.8976 43.3262 50.1239 48.075 50.1239C49.9024 50.1239 51.6994 49.6397 53.274 48.7224C53.7254 48.4594 53.8805 47.8776 53.6183 47.4222C53.3571 46.9668 52.7784 46.8097 52.327 47.0755C51.0404 47.8247 49.5701 48.2205 48.0749 48.2205C43.3843 48.2205 39.5688 44.3784 39.5688 39.6552C39.5688 34.932 43.3844 31.0899 48.0749 31.0899C52.7654 31.0899 56.581 34.932 56.581 39.6552V40.6069C56.581 41.6562 55.7328 42.5103 54.6908 42.5103C53.6488 42.5103 52.8005 41.6562 52.8005 40.6069V36.8001C52.8005 36.274 52.3778 35.8483 51.8554 35.8483C51.6012 35.8483 51.3728 35.9519 51.2031 36.116C50.3677 35.3665 49.2791 34.8966 48.0749 34.8966C45.4693 34.8966 43.3493 37.0314 43.3493 39.6551C43.3493 42.2788 45.4693 44.4137 48.075 44.4137C49.4834 44.4137 50.7358 43.7774 51.6023 42.7897C52.287 43.7691 53.4134 44.4137 54.6908 44.4137C56.7758 44.4137 58.4713 42.7064 58.4713 40.6068V39.6551C58.4713 34.2039 54.3107 29.7177 49.02 29.2347ZM16.8859 17.7659H45.2396C45.2789 17.7659 45.3119 17.7862 45.3507 17.7886L31.8399 28.9559C31.359 29.2608 30.6622 29.1975 30.3493 29.0043L16.7759 17.7884C16.8143 17.7861 16.8469 17.7659 16.8859 17.7659ZM47.1298 29.2347C41.8391 29.7177 37.6785 34.2039 37.6785 39.6552C37.6785 39.9764 37.6981 40.293 37.7264 40.6069H16.8859C15.8439 40.6069 14.9957 39.7528 14.9957 38.7035V19.6694C14.9957 19.3999 15.0548 19.1453 15.1556 18.9128L29.2335 30.5378C29.7835 30.8994 30.4158 31.0899 31.0628 31.0899C31.6849 31.0899 32.2931 30.9134 32.8285 30.5788C32.882 30.55 32.9328 30.5156 32.9808 30.4756L46.9698 18.9126C47.0707 19.1453 47.1299 19.3999 47.1299 19.6695V29.2347H47.1298ZM48.075 42.5103C46.5114 42.5103 45.2396 41.2296 45.2396 39.6552C45.2396 38.0808 46.5114 36.8001 48.075 36.8001C49.6385 36.8001 50.9103 38.0808 50.9103 39.6552C50.9103 41.2296 49.6385 42.5103 48.075 42.5103Z" fill="white"/>
</svg>
