<svg width="37" height="37" viewBox="0 0 37 37" fill="none" xmlns="http://www.w3.org/2000/svg">
<g clip-path="url(#clip0_1_306)">
<path d="M36.3543 27.8627C36.3682 27.8599 36.3818 27.8562 36.3955 27.8526C36.4071 27.8497 36.4189 27.8472 36.4303 27.8437C36.4437 27.8396 36.4568 27.8346 36.4698 27.8299C36.4814 27.8257 36.493 27.8219 36.5045 27.8171C36.5168 27.812 36.5287 27.806 36.5406 27.8003C36.5523 27.7948 36.5642 27.7896 36.5756 27.7834C36.5871 27.7773 36.5979 27.7704 36.609 27.7637C36.6204 27.7569 36.632 27.7505 36.6431 27.743C36.655 27.7351 36.666 27.7263 36.6775 27.7177C36.6871 27.7106 36.6969 27.7038 36.7064 27.6961C36.7237 27.6819 36.7402 27.6667 36.7562 27.6511C36.7591 27.6483 36.7622 27.6459 36.7651 27.6431C36.7681 27.6401 36.7707 27.6367 36.7736 27.6336C36.789 27.6178 36.8039 27.6015 36.8181 27.5844C36.8263 27.5744 36.8335 27.5639 36.8412 27.5535C36.8491 27.5428 36.8574 27.5324 36.8648 27.5213C36.8727 27.5094 36.8797 27.4971 36.887 27.4849C36.8931 27.4747 36.8996 27.4646 36.9053 27.454C36.9119 27.4417 36.9174 27.429 36.9233 27.4165C36.9286 27.4053 36.9341 27.3943 36.939 27.3829C36.9441 27.3706 36.9482 27.358 36.9526 27.3455C36.957 27.3333 36.9617 27.3212 36.9655 27.3088C36.9693 27.2962 36.9721 27.2834 36.9753 27.2705C36.9784 27.2579 36.9821 27.2455 36.9845 27.2328C36.9875 27.2177 36.9893 27.2025 36.9915 27.1873C36.993 27.1766 36.995 27.166 36.9961 27.1552C36.9988 27.1286 37.0002 27.1019 37.0002 27.0752V9.92417C37.0002 9.48092 36.641 9.12177 36.1977 9.12177H10.9219C10.9148 9.12177 10.908 9.12262 10.9009 9.12283C10.8856 9.12326 10.8704 9.1239 10.8552 9.12519C10.8431 9.12615 10.8312 9.12754 10.8192 9.12915C10.8055 9.13086 10.7919 9.13289 10.7783 9.13535C10.7656 9.1376 10.753 9.14027 10.7404 9.14316C10.7277 9.14616 10.715 9.14937 10.7023 9.15301C10.6898 9.15654 10.6775 9.16039 10.6653 9.16445C10.6528 9.16873 10.6403 9.17323 10.628 9.17815C10.6163 9.18275 10.6049 9.18746 10.5935 9.19259C10.5809 9.19826 10.5684 9.20436 10.556 9.21067C10.5454 9.21613 10.535 9.22169 10.5247 9.22758C10.5123 9.23464 10.5001 9.24213 10.4881 9.24983C10.4781 9.25625 10.4684 9.26288 10.4587 9.26962C10.4474 9.27765 10.4362 9.28599 10.4251 9.29476C10.4151 9.30279 10.4052 9.31103 10.3955 9.31948C10.3859 9.32793 10.3764 9.33638 10.367 9.34537C10.3565 9.35553 10.3463 9.36612 10.3362 9.37682C10.3312 9.38217 10.3259 9.38688 10.321 9.39234C10.3182 9.39555 10.3159 9.39908 10.3131 9.40229C10.3031 9.41395 10.2937 9.42615 10.2842 9.43845C10.2774 9.44744 10.2703 9.45642 10.2639 9.46562C10.2556 9.47761 10.2479 9.48991 10.2402 9.50232C10.2338 9.51248 10.2273 9.52254 10.2215 9.53292C10.2148 9.5449 10.2089 9.55721 10.2028 9.56951C10.1973 9.58074 10.1915 9.59198 10.1865 9.60342C10.1812 9.61551 10.1766 9.62803 10.172 9.64033C10.1674 9.65242 10.1627 9.66441 10.1587 9.6766C10.1548 9.68891 10.1516 9.70142 10.1482 9.71394C10.1447 9.72678 10.1411 9.73951 10.1382 9.75246C10.1355 9.76455 10.1337 9.77685 10.1316 9.78905C10.1292 9.80296 10.1269 9.81686 10.1251 9.83077C10.1238 9.84233 10.1231 9.8541 10.1223 9.86586C10.1212 9.88084 10.1202 9.89582 10.12 9.91091C10.1199 9.91529 10.1194 9.91957 10.1194 9.92396V14.8724C10.1194 15.3156 10.4785 15.6748 10.9218 15.6748C11.365 15.6748 11.7242 15.3156 11.7242 14.8724V11.7061L18.8582 18.0223C18.821 18.0485 18.7852 18.0775 18.7518 18.1108L11.7241 25.1385V19.8653C11.7241 19.422 11.3649 19.0629 10.9217 19.0629C10.4784 19.0629 10.1193 19.422 10.1193 19.8653V20.8457H5.97349C5.53024 20.8457 5.17108 21.2049 5.17108 21.6481C5.17108 22.0914 5.53024 22.4505 5.97349 22.4505H10.1193V27.0757C10.1193 27.519 10.4784 27.8781 10.9217 27.8781H36.1975C36.224 27.8781 36.2504 27.8767 36.2767 27.8742C36.289 27.873 36.3009 27.8706 36.313 27.8689C36.3269 27.867 36.3406 27.8654 36.3543 27.8627ZM35.3952 25.1386L28.3674 18.1109C28.3629 18.1064 28.3581 18.1026 28.3535 18.0984L33.6369 13.6159C33.9748 13.3292 34.0163 12.8229 33.7295 12.4849C33.443 12.1472 32.9368 12.1054 32.5986 12.3923L23.5708 20.0515L13.0385 10.7267H35.3952V25.1386ZM19.8867 19.2458C19.944 19.1886 19.9904 19.1248 20.0267 19.057L23.0278 21.714C23.1795 21.8483 23.3695 21.9157 23.5597 21.9157C23.7444 21.9157 23.9289 21.8522 24.0789 21.7251L27.1374 19.1303C27.1652 19.1709 27.1965 19.2097 27.2326 19.2458L34.2603 26.2735H12.859L19.8867 19.2458Z" fill="white"/>
<path d="M0.802408 18.2603H14.3542C14.7975 18.2603 15.1566 17.9011 15.1566 17.4579C15.1566 17.0146 14.7975 16.6555 14.3542 16.6555H0.802408C0.359158 16.6555 0 17.0146 0 17.4579C0 17.9011 0.359158 18.2603 0.802408 18.2603Z" fill="white"/>
<path d="M2.20674 13.8384H8.29166C8.73491 13.8384 9.09407 13.4792 9.09407 13.036C9.09407 12.5927 8.73491 12.2336 8.29166 12.2336H2.20674C1.76349 12.2336 1.40433 12.5927 1.40433 13.036C1.40433 13.4792 1.76349 13.8384 2.20674 13.8384Z" fill="white"/>
<path d="M6.68673 24.2338H0.802408C0.359158 24.2338 0 24.593 0 25.0362C0 25.4795 0.359158 25.8386 0.802408 25.8386H6.68673C7.12998 25.8386 7.48914 25.4795 7.48914 25.0362C7.48914 24.593 7.12998 24.2338 6.68673 24.2338Z" fill="white"/>
</g>
<defs>
<clipPath id="clip0_1_306">
<rect width="37" height="37" fill="white"/>
</clipPath>
</defs>
</svg>
