<svg width="188" height="68" viewBox="0 0 188 68" fill="none" xmlns="http://www.w3.org/2000/svg">
<rect width="68" height="68" rx="34" fill="#786960"/>
<rect x="4.20801" y="4.24243" width="60" height="60" rx="29.5" fill="#8A8787"/>
<g clip-path="url(#clip0_1_281)">
<path d="M41.8675 41.6592C46.8688 33.8112 46.2401 34.7903 46.3842 34.5857C48.2051 32.0174 49.1675 28.9946 49.1675 25.844C49.1675 17.4886 42.3873 10.6057 34.021 10.6057C25.682 10.6057 18.8745 17.4751 18.8745 25.844C18.8745 28.9926 19.8571 32.0945 21.7377 34.6974L26.1744 41.6593C21.4308 42.3883 13.3667 44.5606 13.3667 49.344C13.3667 51.0877 14.5048 53.5726 19.9267 55.509C23.7126 56.8611 28.718 57.6057 34.021 57.6057C43.9374 57.6057 54.6753 54.8085 54.6753 49.344C54.6753 44.5598 46.6207 42.3897 41.8675 41.6592ZM24.038 33.1827C24.0229 33.159 24.0071 33.1359 23.9906 33.1131C22.4257 30.9603 21.6284 28.4089 21.6284 25.844C21.6284 18.9576 27.1735 13.3596 34.021 13.3596C40.8543 13.3596 46.4136 18.9601 46.4136 25.844C46.4136 28.413 45.6314 30.8779 44.1512 32.9739C44.0185 33.1489 44.7106 32.0738 34.021 48.8473L24.038 33.1827ZM34.021 54.8518C23.1895 54.8518 16.1206 51.668 16.1206 49.344C16.1206 47.782 19.7529 45.2136 27.8016 44.2125L32.8598 52.1495C33.1126 52.5462 33.5505 52.7864 34.0209 52.7864C34.4914 52.7864 34.9294 52.5461 35.1821 52.1495L40.2402 44.2125C48.2891 45.2136 51.9214 47.782 51.9214 49.344C51.9214 51.6483 44.9161 54.8518 34.021 54.8518Z" fill="white"/>
<path d="M34.021 18.9592C30.2247 18.9592 27.1362 22.0477 27.1362 25.844C27.1362 29.6403 30.2247 32.7288 34.021 32.7288C37.8172 32.7288 40.9057 29.6403 40.9057 25.844C40.9057 22.0477 37.8172 18.9592 34.021 18.9592ZM34.021 29.9749C31.7432 29.9749 29.8901 28.1217 29.8901 25.844C29.8901 23.5662 31.7432 21.7131 34.021 21.7131C36.2987 21.7131 38.1518 23.5662 38.1518 25.844C38.1518 28.1217 36.2987 29.9749 34.021 29.9749Z" fill="white"/>
</g>
<path d="M88.0391 23.1758H95.5039V26H84.5234V8.9375H88.0391V23.1758ZM96.7812 19.543C96.7812 18.2852 97.0234 17.1641 97.5078 16.1797C97.9922 15.1953 98.6875 14.4336 99.5938 13.8945C100.508 13.3555 101.566 13.0859 102.77 13.0859C104.48 13.0859 105.875 13.6094 106.953 14.6562C108.039 15.7031 108.645 17.125 108.77 18.9219L108.793 19.7891C108.793 21.7344 108.25 23.2969 107.164 24.4766C106.078 25.6484 104.621 26.2344 102.793 26.2344C100.965 26.2344 99.5039 25.6484 98.4102 24.4766C97.3242 23.3047 96.7812 21.7109 96.7812 19.6953V19.543ZM100.168 19.7891C100.168 20.9922 100.395 21.9141 100.848 22.5547C101.301 23.1875 101.949 23.5039 102.793 23.5039C103.613 23.5039 104.254 23.1914 104.715 22.5664C105.176 21.9336 105.406 20.9258 105.406 19.543C105.406 18.3633 105.176 17.4492 104.715 16.8008C104.254 16.1523 103.605 15.8281 102.77 15.8281C101.941 15.8281 101.301 16.1523 100.848 16.8008C100.395 17.4414 100.168 18.4375 100.168 19.7891ZM116.152 23.5039C116.777 23.5039 117.285 23.332 117.676 22.9883C118.066 22.6445 118.27 22.1875 118.285 21.6172H121.461C121.453 22.4766 121.219 23.2656 120.758 23.9844C120.297 24.6953 119.664 25.25 118.859 25.6484C118.062 26.0391 117.18 26.2344 116.211 26.2344C114.398 26.2344 112.969 25.6602 111.922 24.5117C110.875 23.3555 110.352 21.7617 110.352 19.7305V19.5078C110.352 17.5547 110.871 15.9961 111.91 14.832C112.949 13.668 114.375 13.0859 116.188 13.0859C117.773 13.0859 119.043 13.5391 119.996 14.4453C120.957 15.3438 121.445 16.543 121.461 18.043H118.285C118.27 17.3867 118.066 16.8555 117.676 16.4492C117.285 16.0352 116.77 15.8281 116.129 15.8281C115.34 15.8281 114.742 16.1172 114.336 16.6953C113.938 17.2656 113.738 18.1953 113.738 19.4844V19.8359C113.738 21.1406 113.938 22.0781 114.336 22.6484C114.734 23.2188 115.34 23.5039 116.152 23.5039ZM130.742 26C130.586 25.6953 130.473 25.3164 130.402 24.8633C129.582 25.7773 128.516 26.2344 127.203 26.2344C125.961 26.2344 124.93 25.875 124.109 25.1562C123.297 24.4375 122.891 23.5312 122.891 22.4375C122.891 21.0938 123.387 20.0625 124.379 19.3438C125.379 18.625 126.82 18.2617 128.703 18.2539H130.262V17.5273C130.262 16.9414 130.109 16.4727 129.805 16.1211C129.508 15.7695 129.035 15.5938 128.387 15.5938C127.816 15.5938 127.367 15.7305 127.039 16.0039C126.719 16.2773 126.559 16.6523 126.559 17.1289H123.172C123.172 16.3945 123.398 15.7148 123.852 15.0898C124.305 14.4648 124.945 13.9766 125.773 13.625C126.602 13.2656 127.531 13.0859 128.562 13.0859C130.125 13.0859 131.363 13.4805 132.277 14.2695C133.199 15.0508 133.66 16.1523 133.66 17.5742V23.0703C133.668 24.2734 133.836 25.1836 134.164 25.8008V26H130.742ZM127.941 23.6445C128.441 23.6445 128.902 23.5352 129.324 23.3164C129.746 23.0898 130.059 22.7891 130.262 22.4141V20.2344H128.996C127.301 20.2344 126.398 20.8203 126.289 21.9922L126.277 22.1914C126.277 22.6133 126.426 22.9609 126.723 23.2344C127.02 23.5078 127.426 23.6445 127.941 23.6445ZM139.836 26H136.438V8H139.836V26ZM146.211 26H142.812V13.3203H146.211V26ZM142.613 10.0391C142.613 9.53125 142.781 9.11328 143.117 8.78516C143.461 8.45703 143.926 8.29297 144.512 8.29297C145.09 8.29297 145.551 8.45703 145.895 8.78516C146.238 9.11328 146.41 9.53125 146.41 10.0391C146.41 10.5547 146.234 10.9766 145.883 11.3047C145.539 11.6328 145.082 11.7969 144.512 11.7969C143.941 11.7969 143.48 11.6328 143.129 11.3047C142.785 10.9766 142.613 10.5547 142.613 10.0391ZM148.484 19.5664C148.484 17.5898 148.926 16.0156 149.809 14.8438C150.699 13.6719 151.914 13.0859 153.453 13.0859C154.688 13.0859 155.707 13.5469 156.512 14.4688V8H159.91V26H156.852L156.688 24.6523C155.844 25.707 154.758 26.2344 153.43 26.2344C151.938 26.2344 150.738 25.6484 149.832 24.4766C148.934 23.2969 148.484 21.6602 148.484 19.5664ZM151.871 19.8125C151.871 21 152.078 21.9102 152.492 22.543C152.906 23.1758 153.508 23.4922 154.297 23.4922C155.344 23.4922 156.082 23.0508 156.512 22.168V17.1641C156.09 16.2812 155.359 15.8398 154.32 15.8398C152.688 15.8398 151.871 17.1641 151.871 19.8125ZM169.883 26C169.727 25.6953 169.613 25.3164 169.543 24.8633C168.723 25.7773 167.656 26.2344 166.344 26.2344C165.102 26.2344 164.07 25.875 163.25 25.1562C162.438 24.4375 162.031 23.5312 162.031 22.4375C162.031 21.0938 162.527 20.0625 163.52 19.3438C164.52 18.625 165.961 18.2617 167.844 18.2539H169.402V17.5273C169.402 16.9414 169.25 16.4727 168.945 16.1211C168.648 15.7695 168.176 15.5938 167.527 15.5938C166.957 15.5938 166.508 15.7305 166.18 16.0039C165.859 16.2773 165.699 16.6523 165.699 17.1289H162.312C162.312 16.3945 162.539 15.7148 162.992 15.0898C163.445 14.4648 164.086 13.9766 164.914 13.625C165.742 13.2656 166.672 13.0859 167.703 13.0859C169.266 13.0859 170.504 13.4805 171.418 14.2695C172.34 15.0508 172.801 16.1523 172.801 17.5742V23.0703C172.809 24.2734 172.977 25.1836 173.305 25.8008V26H169.883ZM167.082 23.6445C167.582 23.6445 168.043 23.5352 168.465 23.3164C168.887 23.0898 169.199 22.7891 169.402 22.4141V20.2344H168.137C166.441 20.2344 165.539 20.8203 165.43 21.9922L165.418 22.1914C165.418 22.6133 165.566 22.9609 165.863 23.2344C166.16 23.5078 166.566 23.6445 167.082 23.6445ZM174.875 19.5664C174.875 17.5898 175.316 16.0156 176.199 14.8438C177.09 13.6719 178.305 13.0859 179.844 13.0859C181.078 13.0859 182.098 13.5469 182.902 14.4688V8H186.301V26H183.242L183.078 24.6523C182.234 25.707 181.148 26.2344 179.82 26.2344C178.328 26.2344 177.129 25.6484 176.223 24.4766C175.324 23.2969 174.875 21.6602 174.875 19.5664ZM178.262 19.8125C178.262 21 178.469 21.9102 178.883 22.543C179.297 23.1758 179.898 23.4922 180.688 23.4922C181.734 23.4922 182.473 23.0508 182.902 22.168V17.1641C182.48 16.2812 181.75 15.8398 180.711 15.8398C179.078 15.8398 178.262 17.1641 178.262 19.8125Z" fill="white"/>
<path d="M95.0806 42.9214C95.0086 43.9159 94.6405 44.6987 93.9761 45.27C93.3159 45.8413 92.4442 46.127 91.3608 46.127C90.1759 46.127 89.2428 45.7292 88.5615 44.9336C87.8844 44.1338 87.5459 43.0378 87.5459 41.6455V41.0806C87.5459 40.1919 87.7025 39.409 88.0156 38.7319C88.3288 38.0549 88.7752 37.5365 89.355 37.1768C89.939 36.8128 90.616 36.6309 91.3862 36.6309C92.4526 36.6309 93.3117 36.9165 93.9634 37.4878C94.6151 38.0591 94.9917 38.861 95.0933 39.8936H93.189C93.1424 39.2969 92.9753 38.8652 92.6875 38.5986C92.404 38.3278 91.9702 38.1924 91.3862 38.1924C90.7515 38.1924 90.2754 38.4209 89.958 38.8779C89.6449 39.3307 89.484 40.0353 89.4756 40.9917V41.6899C89.4756 42.6886 89.6258 43.4186 89.9263 43.8799C90.231 44.3411 90.7091 44.5718 91.3608 44.5718C91.9491 44.5718 92.387 44.4385 92.6748 44.1719C92.9668 43.901 93.134 43.4842 93.1763 42.9214H95.0806ZM100.19 46C100.106 45.835 100.044 45.6297 100.006 45.3843C99.562 45.8794 98.9844 46.127 98.2734 46.127C97.6006 46.127 97.042 45.9323 96.5977 45.543C96.1576 45.1536 95.9375 44.6628 95.9375 44.0703C95.9375 43.3424 96.2062 42.7839 96.7437 42.3945C97.2853 42.0052 98.0661 41.8084 99.0859 41.8042H99.9302V41.4106C99.9302 41.0933 99.8477 40.8394 99.6826 40.6489C99.5218 40.4585 99.2658 40.3633 98.9146 40.3633C98.6056 40.3633 98.3623 40.4373 98.1846 40.5854C98.0111 40.7336 97.9243 40.9367 97.9243 41.1948H96.0898C96.0898 40.797 96.2126 40.4289 96.458 40.0903C96.7035 39.7518 97.0505 39.4873 97.499 39.2969C97.9476 39.1022 98.4512 39.0049 99.0098 39.0049C99.8561 39.0049 100.527 39.2186 101.022 39.646C101.521 40.0692 101.771 40.6659 101.771 41.436V44.4131C101.775 45.0648 101.866 45.5578 102.044 45.8921V46H100.19ZM98.6733 44.7241C98.9442 44.7241 99.1938 44.6649 99.4224 44.5464C99.6509 44.4237 99.8201 44.2607 99.9302 44.0576V42.877H99.2446C98.3263 42.877 97.8376 43.1943 97.7783 43.8291L97.772 43.937C97.772 44.1655 97.8524 44.3538 98.0132 44.502C98.174 44.6501 98.394 44.7241 98.6733 44.7241ZM105.116 46H103.275V36.25H105.116V46ZM108.569 46H106.729V36.25H108.569V46ZM113.248 46.127C112.24 46.127 111.419 45.818 110.785 45.2002C110.154 44.5824 109.839 43.7593 109.839 42.731V42.5532C109.839 41.8634 109.972 41.2477 110.239 40.7061C110.505 40.1602 110.882 39.7412 111.369 39.4492C111.86 39.153 112.418 39.0049 113.044 39.0049C113.984 39.0049 114.722 39.3011 115.26 39.8936C115.801 40.486 116.072 41.326 116.072 42.4136V43.1626H111.699C111.758 43.6112 111.936 43.9709 112.232 44.2417C112.532 44.5125 112.911 44.6479 113.368 44.6479C114.075 44.6479 114.627 44.3919 115.025 43.8799L115.926 44.8892C115.651 45.2785 115.279 45.5832 114.809 45.8032C114.339 46.019 113.819 46.127 113.248 46.127ZM113.038 40.4902C112.674 40.4902 112.378 40.613 112.149 40.8584C111.925 41.1038 111.781 41.4551 111.718 41.9121H114.27V41.7661C114.261 41.3599 114.151 41.0467 113.939 40.8267C113.728 40.6024 113.427 40.4902 113.038 40.4902ZM123.924 42.7817H120.351V41.3027H123.924V42.7817ZM134.817 42.6294C134.817 43.6873 134.576 44.5358 134.093 45.1748C133.615 45.8096 132.968 46.127 132.151 46.127C131.457 46.127 130.896 45.8857 130.469 45.4033V48.6406H128.634V39.1318H130.335L130.399 39.8047C130.843 39.2715 131.423 39.0049 132.138 39.0049C132.985 39.0049 133.643 39.318 134.112 39.9443C134.582 40.5706 134.817 41.4339 134.817 42.5342V42.6294ZM132.982 42.4961C132.982 41.8571 132.868 41.3641 132.64 41.0171C132.415 40.6701 132.087 40.4966 131.656 40.4966C131.08 40.4966 130.685 40.7166 130.469 41.1567V43.9688C130.693 44.4215 131.093 44.6479 131.668 44.6479C132.544 44.6479 132.982 43.9307 132.982 42.4961ZM139.819 40.8521C139.569 40.8182 139.349 40.8013 139.159 40.8013C138.465 40.8013 138.01 41.0361 137.794 41.5059V46H135.959V39.1318H137.692L137.743 39.9507C138.111 39.3201 138.621 39.0049 139.273 39.0049C139.476 39.0049 139.667 39.0324 139.844 39.0874L139.819 40.8521ZM140.193 42.5024C140.193 41.8211 140.325 41.2139 140.587 40.6807C140.849 40.1475 141.226 39.7349 141.717 39.4429C142.212 39.1509 142.785 39.0049 143.437 39.0049C144.364 39.0049 145.119 39.2884 145.703 39.8555C146.291 40.4225 146.619 41.1927 146.687 42.166L146.7 42.6357C146.7 43.6895 146.406 44.5358 145.817 45.1748C145.229 45.8096 144.44 46.127 143.45 46.127C142.459 46.127 141.668 45.8096 141.076 45.1748C140.487 44.54 140.193 43.6768 140.193 42.585V42.5024ZM142.028 42.6357C142.028 43.2874 142.151 43.7868 142.396 44.1338C142.641 44.4766 142.993 44.6479 143.45 44.6479C143.894 44.6479 144.241 44.4787 144.491 44.1401C144.74 43.7974 144.865 43.2515 144.865 42.5024C144.865 41.8634 144.74 41.3683 144.491 41.0171C144.241 40.6659 143.89 40.4902 143.437 40.4902C142.988 40.4902 142.641 40.6659 142.396 41.0171C142.151 41.3641 142.028 41.9036 142.028 42.6357ZM150.299 43.7593L151.575 39.1318H153.492L151.175 46H149.423L147.106 39.1318H149.023L150.299 43.7593ZM156.24 46H154.399V39.1318H156.24V46ZM154.292 37.3545C154.292 37.0794 154.382 36.853 154.564 36.6753C154.751 36.4976 155.002 36.4087 155.32 36.4087C155.633 36.4087 155.883 36.4976 156.069 36.6753C156.255 36.853 156.348 37.0794 156.348 37.3545C156.348 37.6338 156.253 37.8623 156.062 38.04C155.876 38.2178 155.629 38.3066 155.32 38.3066C155.011 38.3066 154.761 38.2178 154.571 38.04C154.385 37.8623 154.292 37.6338 154.292 37.3545ZM159.446 39.1318L159.503 39.9253C159.994 39.3117 160.652 39.0049 161.477 39.0049C162.205 39.0049 162.747 39.2186 163.102 39.646C163.458 40.0734 163.639 40.7124 163.648 41.563V46H161.813V41.6074C161.813 41.2181 161.729 40.9367 161.56 40.7632C161.39 40.5854 161.109 40.4966 160.715 40.4966C160.199 40.4966 159.812 40.7166 159.554 41.1567V46H157.719V39.1318H159.446ZM167.901 44.6479C168.239 44.6479 168.514 44.5549 168.726 44.3687C168.938 44.1825 169.048 43.9349 169.056 43.626H170.776C170.772 44.0915 170.645 44.5189 170.396 44.9082C170.146 45.2933 169.803 45.5938 169.367 45.8096C168.936 46.0212 168.457 46.127 167.933 46.127C166.951 46.127 166.176 45.8159 165.609 45.1938C165.042 44.5675 164.759 43.7043 164.759 42.604V42.4834C164.759 41.4255 165.04 40.5812 165.603 39.9507C166.166 39.3201 166.938 39.0049 167.92 39.0049C168.779 39.0049 169.467 39.2503 169.983 39.7412C170.503 40.2279 170.768 40.8774 170.776 41.6899H169.056C169.048 41.3345 168.938 41.0467 168.726 40.8267C168.514 40.6024 168.235 40.4902 167.888 40.4902C167.461 40.4902 167.137 40.6468 166.917 40.96C166.701 41.2689 166.593 41.7725 166.593 42.4707V42.6611C166.593 43.3678 166.701 43.8757 166.917 44.1846C167.133 44.4935 167.461 44.6479 167.901 44.6479ZM173.76 46H171.919V39.1318H173.76V46ZM171.811 37.3545C171.811 37.0794 171.902 36.853 172.084 36.6753C172.27 36.4976 172.522 36.4087 172.839 36.4087C173.153 36.4087 173.402 36.4976 173.588 36.6753C173.775 36.853 173.868 37.0794 173.868 37.3545C173.868 37.6338 173.772 37.8623 173.582 38.04C173.396 38.2178 173.148 38.3066 172.839 38.3066C172.53 38.3066 172.281 38.2178 172.09 38.04C171.904 37.8623 171.811 37.6338 171.811 37.3545ZM179.257 46C179.172 45.835 179.111 45.6297 179.073 45.3843C178.628 45.8794 178.051 46.127 177.34 46.127C176.667 46.127 176.108 45.9323 175.664 45.543C175.224 45.1536 175.004 44.6628 175.004 44.0703C175.004 43.3424 175.273 42.7839 175.81 42.3945C176.352 42.0052 177.132 41.8084 178.152 41.8042H178.997V41.4106C178.997 41.0933 178.914 40.8394 178.749 40.6489C178.588 40.4585 178.332 40.3633 177.981 40.3633C177.672 40.3633 177.429 40.4373 177.251 40.5854C177.077 40.7336 176.991 40.9367 176.991 41.1948H175.156C175.156 40.797 175.279 40.4289 175.524 40.0903C175.77 39.7518 176.117 39.4873 176.565 39.2969C177.014 39.1022 177.518 39.0049 178.076 39.0049C178.923 39.0049 179.593 39.2186 180.088 39.646C180.588 40.0692 180.837 40.6659 180.837 41.436V44.4131C180.842 45.0648 180.933 45.5578 181.11 45.8921V46H179.257ZM177.74 44.7241C178.011 44.7241 178.26 44.6649 178.489 44.5464C178.717 44.4237 178.887 44.2607 178.997 44.0576V42.877H178.311C177.393 42.877 176.904 43.1943 176.845 43.8291L176.838 43.937C176.838 44.1655 176.919 44.3538 177.08 44.502C177.24 44.6501 177.46 44.7241 177.74 44.7241Z" fill="#8A8787"/>
<defs>
<clipPath id="clip0_1_281">
<rect width="47" height="47" fill="white" transform="translate(10.521 10.6057)"/>
</clipPath>
</defs>
</svg>
