<svg width="304" height="84" viewBox="0 0 304 84" fill="none" xmlns="http://www.w3.org/2000/svg">
<rect y="9" width="67" height="67" rx="33.5" fill="#786960"/>
<rect x="4" y="13" width="59" height="58" rx="29" fill="#8A8787"/>
<g clip-path="url(#clip0_1_293)">
<path d="M46.5634 47.8758C45.6421 46.9165 44.5309 46.4037 43.3532 46.4037C42.185 46.4037 41.0643 46.907 40.105 47.8663L37.1038 50.858C36.8568 50.7251 36.6099 50.6016 36.3725 50.4781C36.0306 50.3072 35.7076 50.1457 35.4322 49.9747C32.6209 48.1892 30.0661 45.8623 27.6157 42.8516C26.4285 41.351 25.6307 40.0878 25.0514 38.8056C25.8302 38.0933 26.552 37.3525 27.2548 36.6402C27.5207 36.3742 27.7867 36.0988 28.0526 35.8329C30.0471 33.8384 30.0471 31.2551 28.0526 29.2606L25.4598 26.6677C25.1653 26.3733 24.8614 26.0694 24.5765 25.7655C24.0066 25.1766 23.4083 24.5688 22.791 23.9989C21.8697 23.0872 20.768 22.6028 19.6093 22.6028C18.4506 22.6028 17.3299 23.0872 16.3801 23.9989C16.3706 24.0084 16.3706 24.0084 16.3611 24.0179L13.1319 27.2756C11.9163 28.4913 11.2229 29.9729 11.071 31.6919C10.843 34.4652 11.6598 37.0486 12.2867 38.7391C13.8253 42.8896 16.1237 46.7361 19.5523 50.858C23.7122 55.8252 28.7174 59.7477 34.435 62.5115C36.6194 63.5468 39.5352 64.7719 42.7928 64.9809C42.9923 64.9904 43.2012 64.9999 43.3912 64.9999C45.5851 64.9999 47.4276 64.2116 48.8713 62.6445C48.8808 62.6255 48.8997 62.616 48.9092 62.597C49.4031 61.9987 49.973 61.4573 50.5713 60.8779C50.9797 60.4885 51.3976 60.0802 51.806 59.6528C52.7463 58.6745 53.2401 57.5348 53.2401 56.3666C53.2401 55.1889 52.7368 54.0587 51.7775 53.1089L46.5634 47.8758ZM49.9635 57.8767C49.954 57.8767 49.954 57.8862 49.9635 57.8767C49.5931 58.2756 49.2132 58.6365 48.8048 59.0354C48.1874 59.6243 47.5606 60.2416 46.9717 60.9349C46.0125 61.9607 44.8823 62.445 43.4007 62.445C43.2582 62.445 43.1062 62.445 42.9638 62.4355C40.143 62.2551 37.5217 61.1534 35.5557 60.2131C30.1801 57.6108 25.4598 53.9162 21.5373 49.2339C18.2986 45.3304 16.1332 41.7214 14.699 37.8464C13.8158 35.4815 13.4928 33.6389 13.6353 31.9009C13.7303 30.7897 14.1577 29.8684 14.946 29.0801L18.1846 25.8415C18.65 25.4046 19.1439 25.1671 19.6283 25.1671C20.2266 25.1671 20.711 25.528 21.0149 25.832C21.0244 25.8415 21.0339 25.8509 21.0434 25.8604C21.6228 26.4018 22.1736 26.9622 22.753 27.5605C23.0474 27.8644 23.3513 28.1684 23.6552 28.4818L26.2481 31.0746C27.2548 32.0813 27.2548 33.0121 26.2481 34.0189C25.9726 34.2943 25.7067 34.5697 25.4313 34.8356C24.6335 35.6524 23.8737 36.4122 23.0474 37.153C23.0284 37.172 23.0094 37.1815 22.9999 37.2005C22.1831 38.0173 22.3351 38.8151 22.506 39.3565C22.5155 39.385 22.525 39.4135 22.5345 39.442C23.2089 41.0755 24.1586 42.6141 25.6022 44.4472L25.6117 44.4567C28.2331 47.6858 30.9969 50.2027 34.0456 52.1307C34.435 52.3776 34.8339 52.5771 35.2138 52.767C35.5557 52.938 35.8786 53.0994 36.154 53.2704C36.192 53.2894 36.23 53.3179 36.268 53.3369C36.5909 53.4983 36.8948 53.5743 37.2083 53.5743C37.9966 53.5743 38.4904 53.0805 38.6519 52.919L41.9 49.6708C42.223 49.3479 42.7358 48.9585 43.3342 48.9585C43.923 48.9585 44.4074 49.3289 44.7018 49.6518C44.7113 49.6613 44.7113 49.6613 44.7208 49.6708L49.954 54.904C50.9322 55.8727 50.9322 56.87 49.9635 57.8767Z" fill="white"/>
<path d="M35.3191 30.7043C37.8075 31.1222 40.0679 32.2999 41.8725 34.1044C43.677 35.9089 44.8452 38.1694 45.2726 40.6577C45.3771 41.2846 45.9184 41.7215 46.5358 41.7215C46.6117 41.7215 46.6782 41.712 46.7542 41.7025C47.457 41.5885 47.9224 40.9237 47.8084 40.2208C47.2956 37.2101 45.8709 34.4653 43.696 32.2904C41.521 30.1154 38.7762 28.6908 35.7655 28.1779C35.0627 28.064 34.4074 28.5293 34.2839 29.2227C34.1604 29.916 34.6163 30.5903 35.3191 30.7043Z" fill="white"/>
<path d="M55.9478 39.8504C55.1025 34.8927 52.7661 30.3814 49.1761 26.7913C45.586 23.2012 41.0747 20.8648 36.1169 20.0195C35.4236 19.8961 34.7683 20.371 34.6448 21.0643C34.5308 21.7671 34.9962 22.4224 35.699 22.5459C40.1249 23.2962 44.1614 25.3952 47.3715 28.5958C50.5817 31.806 52.6712 35.8425 53.4215 40.2683C53.5259 40.8952 54.0673 41.3321 54.6846 41.3321C54.7606 41.3321 54.8271 41.3226 54.9031 41.3131C55.5964 41.2086 56.0713 40.5438 55.9478 39.8504Z" fill="white"/>
</g>
<path d="M98.3984 22H94.8828L88.0391 10.7734V22H84.5234V4.9375H88.0391L94.8945 16.1875V4.9375H98.3984V22ZM108.84 20.7109C108.004 21.7266 106.848 22.2344 105.371 22.2344C104.012 22.2344 102.973 21.8438 102.254 21.0625C101.543 20.2812 101.18 19.1367 101.164 17.6289V9.32031H104.551V17.5117C104.551 18.832 105.152 19.4922 106.355 19.4922C107.504 19.4922 108.293 19.0938 108.723 18.2969V9.32031H112.121V22H108.934L108.84 20.7109ZM107.328 4H111.02L107.773 7.63281H105.02L107.328 4ZM117.852 9.32031L117.957 10.7383C118.855 9.63672 120.07 9.08594 121.602 9.08594C123.234 9.08594 124.355 9.73047 124.965 11.0195C125.855 9.73047 127.125 9.08594 128.773 9.08594C130.148 9.08594 131.172 9.48828 131.844 10.293C132.516 11.0898 132.852 12.293 132.852 13.9023V22H129.453V13.9141C129.453 13.1953 129.312 12.6719 129.031 12.3438C128.75 12.0078 128.254 11.8398 127.543 11.8398C126.527 11.8398 125.824 12.3242 125.434 13.293L125.445 22H122.059V13.9258C122.059 13.1914 121.914 12.6602 121.625 12.332C121.336 12.0039 120.844 11.8398 120.148 11.8398C119.188 11.8398 118.492 12.2383 118.062 13.0352V22H114.676V9.32031H117.852ZM141.301 22.2344C139.441 22.2344 137.926 21.6641 136.754 20.5234C135.59 19.3828 135.008 17.8633 135.008 15.9648V15.6367C135.008 14.3633 135.254 13.2266 135.746 12.2266C136.238 11.2188 136.934 10.4453 137.832 9.90625C138.738 9.35938 139.77 9.08594 140.926 9.08594C142.66 9.08594 144.023 9.63281 145.016 10.7266C146.016 11.8203 146.516 13.3711 146.516 15.3789V16.7617H138.441C138.551 17.5898 138.879 18.2539 139.426 18.7539C139.98 19.2539 140.68 19.5039 141.523 19.5039C142.828 19.5039 143.848 19.0312 144.582 18.0859L146.246 19.9492C145.738 20.668 145.051 21.2305 144.184 21.6367C143.316 22.0352 142.355 22.2344 141.301 22.2344ZM140.914 11.8281C140.242 11.8281 139.695 12.0547 139.273 12.5078C138.859 12.9609 138.594 13.6094 138.477 14.4531H143.188V14.1836C143.172 13.4336 142.969 12.8555 142.578 12.4492C142.188 12.0352 141.633 11.8281 140.914 11.8281ZM155.574 12.4961C155.113 12.4336 154.707 12.4023 154.355 12.4023C153.074 12.4023 152.234 12.8359 151.836 13.7031V22H148.449V9.32031H151.648L151.742 10.832C152.422 9.66797 153.363 9.08594 154.566 9.08594C154.941 9.08594 155.293 9.13672 155.621 9.23828L155.574 12.4961ZM156.266 15.543C156.266 14.2852 156.508 13.1641 156.992 12.1797C157.477 11.1953 158.172 10.4336 159.078 9.89453C159.992 9.35547 161.051 9.08594 162.254 9.08594C163.965 9.08594 165.359 9.60938 166.438 10.6562C167.523 11.7031 168.129 13.125 168.254 14.9219L168.277 15.7891C168.277 17.7344 167.734 19.2969 166.648 20.4766C165.562 21.6484 164.105 22.2344 162.277 22.2344C160.449 22.2344 158.988 21.6484 157.895 20.4766C156.809 19.3047 156.266 17.7109 156.266 15.6953V15.543ZM159.652 15.7891C159.652 16.9922 159.879 17.9141 160.332 18.5547C160.785 19.1875 161.434 19.5039 162.277 19.5039C163.098 19.5039 163.738 19.1914 164.199 18.5664C164.66 17.9336 164.891 16.9258 164.891 15.543C164.891 14.3633 164.66 13.4492 164.199 12.8008C163.738 12.1523 163.09 11.8281 162.254 11.8281C161.426 11.8281 160.785 12.1523 160.332 12.8008C159.879 13.4414 159.652 14.4375 159.652 15.7891ZM175.812 15.5664C175.812 13.5898 176.254 12.0156 177.137 10.8438C178.027 9.67188 179.242 9.08594 180.781 9.08594C182.016 9.08594 183.035 9.54688 183.84 10.4688V4H187.238V22H184.18L184.016 20.6523C183.172 21.707 182.086 22.2344 180.758 22.2344C179.266 22.2344 178.066 21.6484 177.16 20.4766C176.262 19.2969 175.812 17.6602 175.812 15.5664ZM179.199 15.8125C179.199 17 179.406 17.9102 179.82 18.543C180.234 19.1758 180.836 19.4922 181.625 19.4922C182.672 19.4922 183.41 19.0508 183.84 18.168V13.1641C183.418 12.2812 182.688 11.8398 181.648 11.8398C180.016 11.8398 179.199 13.1641 179.199 15.8125ZM195.699 22.2344C193.84 22.2344 192.324 21.6641 191.152 20.5234C189.988 19.3828 189.406 17.8633 189.406 15.9648V15.6367C189.406 14.3633 189.652 13.2266 190.145 12.2266C190.637 11.2188 191.332 10.4453 192.23 9.90625C193.137 9.35938 194.168 9.08594 195.324 9.08594C197.059 9.08594 198.422 9.63281 199.414 10.7266C200.414 11.8203 200.914 13.3711 200.914 15.3789V16.7617H192.84C192.949 17.5898 193.277 18.2539 193.824 18.7539C194.379 19.2539 195.078 19.5039 195.922 19.5039C197.227 19.5039 198.246 19.0312 198.98 18.0859L200.645 19.9492C200.137 20.668 199.449 21.2305 198.582 21.6367C197.715 22.0352 196.754 22.2344 195.699 22.2344ZM195.312 11.8281C194.641 11.8281 194.094 12.0547 193.672 12.5078C193.258 12.9609 192.992 13.6094 192.875 14.4531H197.586V14.1836C197.57 13.4336 197.367 12.8555 196.977 12.4492C196.586 12.0352 196.031 11.8281 195.312 11.8281ZM212.879 6.20312V9.32031H215.047V11.8047H212.879V18.1328C212.879 18.6016 212.969 18.9375 213.148 19.1406C213.328 19.3438 213.672 19.4453 214.18 19.4453C214.555 19.4453 214.887 19.418 215.176 19.3633V21.9297C214.512 22.1328 213.828 22.2344 213.125 22.2344C210.75 22.2344 209.539 21.0352 209.492 18.6367V11.8047H207.641V9.32031H209.492V6.20312H212.879ZM222.77 22.2344C220.91 22.2344 219.395 21.6641 218.223 20.5234C217.059 19.3828 216.477 17.8633 216.477 15.9648V15.6367C216.477 14.3633 216.723 13.2266 217.215 12.2266C217.707 11.2188 218.402 10.4453 219.301 9.90625C220.207 9.35938 221.238 9.08594 222.395 9.08594C224.129 9.08594 225.492 9.63281 226.484 10.7266C227.484 11.8203 227.984 13.3711 227.984 15.3789V16.7617H219.91C220.02 17.5898 220.348 18.2539 220.895 18.7539C221.449 19.2539 222.148 19.5039 222.992 19.5039C224.297 19.5039 225.316 19.0312 226.051 18.0859L227.715 19.9492C227.207 20.668 226.52 21.2305 225.652 21.6367C224.785 22.0352 223.824 22.2344 222.77 22.2344ZM222.383 11.8281C221.711 11.8281 221.164 12.0547 220.742 12.5078C220.328 12.9609 220.062 13.6094 219.945 14.4531H224.656V14.1836C224.641 13.4336 224.438 12.8555 224.047 12.4492C223.656 12.0352 223.102 11.8281 222.383 11.8281ZM233.492 22H230.094V4H233.492V22ZM242.129 22.2344C240.27 22.2344 238.754 21.6641 237.582 20.5234C236.418 19.3828 235.836 17.8633 235.836 15.9648V15.6367C235.836 14.3633 236.082 13.2266 236.574 12.2266C237.066 11.2188 237.762 10.4453 238.66 9.90625C239.566 9.35938 240.598 9.08594 241.754 9.08594C243.488 9.08594 244.852 9.63281 245.844 10.7266C246.844 11.8203 247.344 13.3711 247.344 15.3789V16.7617H239.27C239.379 17.5898 239.707 18.2539 240.254 18.7539C240.809 19.2539 241.508 19.5039 242.352 19.5039C243.656 19.5039 244.676 19.0312 245.41 18.0859L247.074 19.9492C246.566 20.668 245.879 21.2305 245.012 21.6367C244.145 22.0352 243.184 22.2344 242.129 22.2344ZM241.742 11.8281C241.07 11.8281 240.523 12.0547 240.102 12.5078C239.688 12.9609 239.422 13.6094 239.305 14.4531H244.016V14.1836C244 13.4336 243.797 12.8555 243.406 12.4492C243.016 12.0352 242.461 11.8281 241.742 11.8281ZM242.047 4H245.738L242.492 7.63281H239.738L242.047 4ZM250.203 22V11.8047H248.316V9.32031H250.203V8.24219C250.203 6.82031 250.609 5.71875 251.422 4.9375C252.242 4.14844 253.387 3.75391 254.855 3.75391C255.324 3.75391 255.898 3.83203 256.578 3.98828L256.543 6.61328C256.262 6.54297 255.918 6.50781 255.512 6.50781C254.238 6.50781 253.602 7.10547 253.602 8.30078V9.32031H256.121V11.8047H253.602V22H250.203ZM257.352 15.543C257.352 14.2852 257.594 13.1641 258.078 12.1797C258.562 11.1953 259.258 10.4336 260.164 9.89453C261.078 9.35547 262.137 9.08594 263.34 9.08594C265.051 9.08594 266.445 9.60938 267.523 10.6562C268.609 11.7031 269.215 13.125 269.34 14.9219L269.363 15.7891C269.363 17.7344 268.82 19.2969 267.734 20.4766C266.648 21.6484 265.191 22.2344 263.363 22.2344C261.535 22.2344 260.074 21.6484 258.98 20.4766C257.895 19.3047 257.352 17.7109 257.352 15.6953V15.543ZM260.738 15.7891C260.738 16.9922 260.965 17.9141 261.418 18.5547C261.871 19.1875 262.52 19.5039 263.363 19.5039C264.184 19.5039 264.824 19.1914 265.285 18.5664C265.746 17.9336 265.977 16.9258 265.977 15.543C265.977 14.3633 265.746 13.4492 265.285 12.8008C264.824 12.1523 264.176 11.8281 263.34 11.8281C262.512 11.8281 261.871 12.1523 261.418 12.8008C260.965 13.4414 260.738 14.4375 260.738 15.7891ZM274.566 9.32031L274.672 10.7852C275.578 9.65234 276.793 9.08594 278.316 9.08594C279.66 9.08594 280.66 9.48047 281.316 10.2695C281.973 11.0586 282.309 12.2383 282.324 13.8086V22H278.938V13.8906C278.938 13.1719 278.781 12.6523 278.469 12.332C278.156 12.0039 277.637 11.8398 276.91 11.8398C275.957 11.8398 275.242 12.2461 274.766 13.0586V22H271.379V9.32031H274.566ZM284.375 15.543C284.375 14.2852 284.617 13.1641 285.102 12.1797C285.586 11.1953 286.281 10.4336 287.188 9.89453C288.102 9.35547 289.16 9.08594 290.363 9.08594C292.074 9.08594 293.469 9.60938 294.547 10.6562C295.633 11.7031 296.238 13.125 296.363 14.9219L296.387 15.7891C296.387 17.7344 295.844 19.2969 294.758 20.4766C293.672 21.6484 292.215 22.2344 290.387 22.2344C288.559 22.2344 287.098 21.6484 286.004 20.4766C284.918 19.3047 284.375 17.7109 284.375 15.6953V15.543ZM287.762 15.7891C287.762 16.9922 287.988 17.9141 288.441 18.5547C288.895 19.1875 289.543 19.5039 290.387 19.5039C291.207 19.5039 291.848 19.1914 292.309 18.5664C292.77 17.9336 293 16.9258 293 15.543C293 14.3633 292.77 13.4492 292.309 12.8008C291.848 12.1523 291.199 11.8281 290.363 11.8281C289.535 11.8281 288.895 12.1523 288.441 12.8008C287.988 13.4414 287.762 14.4375 287.762 15.7891Z" fill="white"/>
<path d="M92.0845 44H90.25V36.9287L88.0601 37.6079V36.1162L91.8877 34.7451H92.0845V44ZM95.3662 39.4551L95.8994 34.7578H101.079V36.2876H97.4038L97.1753 38.2744C97.6112 38.0417 98.0745 37.9253 98.5654 37.9253C99.4456 37.9253 100.135 38.1982 100.635 38.7441C101.134 39.29 101.384 40.0539 101.384 41.0356C101.384 41.6323 101.257 42.1676 101.003 42.6416C100.753 43.1113 100.394 43.4774 99.9238 43.7397C99.4541 43.9979 98.8997 44.127 98.2607 44.127C97.7021 44.127 97.1838 44.0148 96.7056 43.7905C96.2274 43.562 95.8486 43.2425 95.5693 42.832C95.2943 42.4215 95.1483 41.9539 95.1313 41.4292H96.9468C96.9849 41.8143 97.1182 42.1147 97.3467 42.3306C97.5794 42.5422 97.882 42.6479 98.2544 42.6479C98.6691 42.6479 98.9886 42.4998 99.2129 42.2036C99.4372 41.9032 99.5493 41.48 99.5493 40.9341C99.5493 40.4093 99.4202 40.0073 99.1621 39.728C98.904 39.4487 98.5379 39.3091 98.064 39.3091C97.6281 39.3091 97.2747 39.4233 97.0039 39.6519L96.8262 39.8169L95.3662 39.4551ZM106.202 40.7817H102.628V39.3027H106.202V40.7817ZM112.054 44H110.22V36.9287L108.03 37.6079V36.1162L111.857 34.7451H112.054V44ZM119.519 44H117.685V36.9287L115.495 37.6079V36.1162L119.322 34.7451H119.519V44ZM126.984 44H125.149V36.9287L122.959 37.6079V36.1162L126.787 34.7451H126.984V44ZM133.636 40.7817H130.062V39.3027H133.636V40.7817ZM139.489 44H137.654V36.9287L135.464 37.6079V36.1162L139.292 34.7451H139.489V44ZM146.954 44H145.119V36.9287L142.929 37.6079V36.1162L146.757 34.7451H146.954V44ZM154.418 44H152.584V36.9287L150.394 37.6079V36.1162L154.222 34.7451H154.418V44ZM161.071 40.7817H157.497V39.3027H161.071V40.7817ZM166.923 44H165.089V36.9287L162.899 37.6079V36.1162L166.727 34.7451H166.923V44ZM174.388 44H172.554V36.9287L170.364 37.6079V36.1162L174.191 34.7451H174.388V44ZM181.853 44H180.019V36.9287L177.829 37.6079V36.1162L181.656 34.7451H181.853V44Z" fill="#8A8787"/>
<defs>
<clipPath id="clip0_1_293">
<rect width="45" height="45" fill="white" transform="translate(11 20)"/>
</clipPath>
</defs>
</svg>
